<?xml version="1.0" encoding="UTF-8" standalone="no"?>
<!-- Created with Inkscape (http://www.inkscape.org/) -->

<svg
   version="1.1"
   id="svg1"
   width="315.49991"
   height="53.505341"
   viewBox="0 0 315.49991 53.505342"
   xmlns="http://www.w3.org/2000/svg"
   xmlns:svg="http://www.w3.org/2000/svg">
  <defs
     id="defs1">
    <clipPath
       clipPathUnits="userSpaceOnUse"
       id="clipPath372">
      <path
         d="M 0,0 H 595.276 V 595.276 H 0 Z"
         transform="translate(-117.46083,-49.783999)"
         id="path372" />
    </clipPath>
  </defs>
  <g
     id="g303"
     transform="translate(-232.97172,-668.04764)">
    <g
       id="g370"
       transform="translate(-1435.1058,-7.6254296)">
      <path
         id="path371"
         d="m 0,0 c -0.016,0 -0.031,0.001 -0.047,0.003 l -1.71,0.191 c -0.121,0.014 -0.231,0.08 -0.3,0.181 -0.069,0.1 -0.09,0.226 -0.059,0.344 l 3.463,13.117 -1.567,0.485 c -0.123,0.039 -0.222,0.131 -0.268,0.252 -0.046,0.12 -0.034,0.255 0.032,0.365 l 1.62,2.701 c 0.056,0.094 0.146,0.162 0.252,0.19 l 1.124,0.299 3.012,9.853 1.633,5.479 c 0.037,0.125 0.13,0.226 0.252,0.272 0.122,0.047 0.258,0.035 0.369,-0.033 l 4.121,-2.507 11.162,1.183 c 0.149,0.014 0.295,-0.049 0.383,-0.169 0.088,-0.121 0.106,-0.279 0.047,-0.416 l -2.543,-5.851 c -0.061,-0.141 -0.194,-0.237 -0.347,-0.251 l -9.961,-0.915 -1.335,-5.07 6.28,1.341 c 0.153,0.032 0.31,-0.022 0.41,-0.141 l 2.587,-3.088 c 0.13,-0.155 0.131,-0.381 0.002,-0.537 l -1.366,-1.652 c -0.06,-0.072 -0.141,-0.122 -0.231,-0.142 L 7.61,13.354 5.278,6.334 16.42,8.054 C 16.569,8.077 16.718,8.019 16.812,7.902 16.906,7.785 16.93,7.626 16.875,7.487 L 15.095,2.929 C 15.042,2.793 14.922,2.695 14.779,2.669 L 0.075,0.007 C 0.05,0.002 0.025,0 0,0 m 16.922,15.893 h 0.002 z"
         style="fill:#ffffff;fill-opacity:1;fill-rule:nonzero;stroke:none"
         transform="matrix(1.3333333,0,0,-1.3333333,1784.0171,727.32267)"
         clip-path="url(#clipPath372)" />
    </g>
    <g
       id="g372"
       transform="translate(-1435.1058,-7.6254296)">
      <path
         id="path373"
         d="M 0,0 C -0.169,0 -0.322,0.102 -0.388,0.259 L -2.637,5.68 c -0.036,0.088 -0.041,0.185 -0.015,0.276 l 1.872,6.555 -2.443,0.177 c -0.12,0.009 -0.231,0.069 -0.304,0.165 -0.072,0.096 -0.101,0.218 -0.077,0.337 l 0.843,4.221 c 0.035,0.174 0.175,0.307 0.35,0.333 l 3.296,0.489 4.1,13.872 c 0.035,0.118 0.12,0.215 0.233,0.265 0.113,0.05 0.241,0.048 0.352,-0.006 l 6.015,-2.901 11.184,1.185 c 0.15,0.015 0.295,-0.049 0.383,-0.169 0.088,-0.121 0.106,-0.279 0.047,-0.416 l -2.543,-5.851 c -0.065,-0.15 -0.212,-0.249 -0.375,-0.253 L 9.184,23.706 7.708,17.828 l 8.339,0.09 c 0.18,0.006 0.338,-0.109 0.399,-0.276 l 1.095,-3.012 c 0.041,-0.115 0.031,-0.243 -0.029,-0.349 l -0.954,-1.69 C 16.489,12.469 16.364,12.389 16.225,12.378 L 6.017,11.567 4.247,5.897 15.724,7.17 c 0.141,0.016 0.28,-0.041 0.371,-0.151 0.09,-0.109 0.118,-0.257 0.076,-0.392 L 14.45,1.122 C 14.398,0.956 14.248,0.839 14.073,0.828 L 0.025,0.001 C 0.017,0 0.008,0 0,0 m 20.271,24.379 h 0.002 z"
         style="fill:#ffffff;fill-opacity:1;fill-rule:nonzero;stroke:none"
         transform="matrix(1.3333333,0,0,-1.3333333,1952.5997,725.37267)" />
    </g>
    <g
       id="g373"
       transform="translate(-1435.1058,-7.6254296)">
      <path
         id="path374"
         d="M 0,0 C -0.097,0 -0.193,0.034 -0.27,0.098 L -2.589,2.041 C -2.643,2.087 -2.685,2.146 -2.711,2.212 L -7.307,14.16 -7.777,13.766 -10.482,1.345 c -0.037,-0.172 -0.178,-0.303 -0.352,-0.327 -0.174,-0.025 -0.345,0.062 -0.428,0.217 l -3.683,6.853 c -0.046,0.085 -0.061,0.182 -0.043,0.277 l 4.638,24.61 c 0.019,0.103 0.077,0.195 0.161,0.258 l 6.278,4.701 c 0.139,0.105 0.33,0.112 0.477,0.018 0.148,-0.094 0.221,-0.269 0.185,-0.44 L -6.175,23.63 5.293,33.645 c 0.064,0.055 0.142,0.091 0.226,0.101 l 3.982,0.479 c 0.143,0.017 0.283,-0.039 0.374,-0.149 0.091,-0.11 0.12,-0.259 0.077,-0.395 L 7.844,27.061 C 7.82,26.987 7.776,26.921 7.717,26.87 L -1.816,18.656 2.016,6.664 C 2.041,6.588 2.043,6.507 2.022,6.429 L 0.406,0.313 C 0.369,0.174 0.264,0.063 0.127,0.02 0.085,0.006 0.043,0 0,0 m 7.443,27.188 h 0.002 z"
         style="fill:#ffffff;fill-opacity:1;fill-rule:nonzero;stroke:none"
         transform="matrix(1.3333333,0,0,-1.3333333,1777.6428,727.9304)" />
    </g>
    <g
       id="g374"
       transform="translate(-1435.1058,-7.6254296)">
      <path
         id="path375"
         d="m 0,0 c -0.082,0 -0.164,0.024 -0.236,0.072 l -0.972,0.66 c -0.153,0.104 -0.22,0.297 -0.165,0.473 l 4.311,13.73 -7.714,1.246 c -0.121,0.02 -0.228,0.092 -0.292,0.197 -0.064,0.105 -0.078,0.233 -0.04,0.35 l 0.434,1.311 c 0.045,0.138 0.159,0.243 0.3,0.277 l 9.058,2.178 0.404,1.289 3.034,9.292 c 0.04,0.121 0.131,0.217 0.25,0.262 l 5.512,2.102 c 0.15,0.057 0.32,0.024 0.437,-0.086 0.117,-0.111 0.161,-0.278 0.114,-0.431 l -3.391,-10.898 5.594,1.346 2.349,7.999 c 0.042,0.145 0.16,0.256 0.307,0.291 0.242,0.056 4.907,1.247 5.425,1.385 0.147,0.039 0.304,-0.005 0.41,-0.114 0.106,-0.109 0.144,-0.267 0.101,-0.413 l -2.26,-7.555 2.485,0.83 c 0.149,0.05 0.314,0.013 0.426,-0.097 0.113,-0.109 0.155,-0.272 0.11,-0.423 L 24.358,19.877 C 24.315,19.736 24.202,19.628 24.06,19.592 L 21.195,18.861 16.8,2.881 C 16.752,2.707 16.599,2.583 16.419,2.573 L 13.14,2.381 C 12.969,2.369 12.805,2.468 12.733,2.626 L 11.685,4.924 C 11.644,5.013 11.636,5.113 11.661,5.207 L 14.905,17.267 9.156,15.811 6.047,5.546 C 6.025,5.475 5.985,5.411 5.931,5.36 L 0.286,0.112 C 0.206,0.038 0.103,0 0,0 m 23.956,19.999 h 0.002 z"
         style="fill:#ffffff;fill-opacity:1;fill-rule:nonzero;stroke:none"
         transform="matrix(1.3333333,0,0,-1.3333333,1674.9161,726.56293)" />
    </g>
    <g
       id="g375"
       transform="translate(-1435.1058,-7.6254296)">
      <path
         id="path376"
         d="m 0,0 c -0.079,0.101 -0.2,0.16 -0.328,0.161 l -1.806,0.008 0.039,0.654 0.532,10.628 c 0.006,0.12 -0.04,0.237 -0.126,0.321 -0.085,0.084 -0.201,0.128 -0.323,0.119 l -2.784,-0.194 3.3,5.754 c 0.076,0.134 0.073,0.3 -0.009,0.431 -0.082,0.132 -0.231,0.208 -0.384,0.197 l -5.997,-0.406 c -0.136,-0.009 -0.259,-0.084 -0.33,-0.2 L -18.89,0.037 -20,-0.371 -22.131,-1.186 c -0.098,-0.038 -0.178,-0.11 -0.225,-0.203 l -1.485,-2.943 c -0.064,-0.128 -0.059,-0.28 0.014,-0.404 0.073,-0.123 0.204,-0.2 0.348,-0.205 l 1.917,-0.062 -6.659,-11.216 c -0.066,-0.111 -0.077,-0.245 -0.031,-0.366 0.047,-0.12 0.146,-0.212 0.269,-0.25 l 3.138,-0.962 c 0.04,-0.013 0.082,-0.019 0.123,-0.019 0.087,0 0.173,0.027 0.246,0.08 l 5.386,3.879 c 0.049,0.035 0.09,0.08 0.119,0.132 l 4.824,8.409 5.115,-0.01 -0.53,-7.664 c -0.01,-0.154 0.065,-0.302 0.195,-0.384 l 1.921,-1.213 c 0.107,-0.067 0.239,-0.083 0.358,-0.043 l 4.042,1.359 c 0.166,0.056 0.28,0.208 0.286,0.383 l 0.268,7.2 2.126,-0.028 c 0.121,0 0.247,0.053 0.328,0.151 0.081,0.097 0.114,0.226 0.089,0.35 l -0.514,2.597 0.541,2.261 C 0.108,-0.232 0.079,-0.101 0,0 M -7.716,-0.059 C -7.731,-0.28 -7.915,-0.45 -8.135,-0.45 c -0.005,0 -0.01,0 -0.016,0 l -3.533,0.129 c -0.147,0.006 -0.28,0.088 -0.352,0.216 -0.071,0.129 -0.07,0.285 0.003,0.413 l 4.027,7.021 c 0.098,0.169 0.299,0.25 0.487,0.192 0.187,-0.056 0.31,-0.235 0.297,-0.43 z"
         style="fill:#ffffff;fill-opacity:1;fill-rule:nonzero;stroke:none"
         transform="matrix(1.3333333,0,0,-1.3333333,1923.5349,703.99853)" />
    </g>
    <g
       id="g376"
       transform="translate(-1435.1058,-7.6254296)">
      <path
         id="path377"
         d="m 0,0 -2.332,10.899 0.79,0.19 c 0.161,0.039 0.284,0.169 0.315,0.332 l 0.913,4.929 c 0.026,0.142 -0.022,0.287 -0.128,0.385 -0.106,0.098 -0.255,0.135 -0.394,0.097 l -2.611,-0.699 -2.347,9.725 c -0.041,0.169 -0.182,0.296 -0.354,0.318 l -1.929,0.251 0.575,2.039 c 0.046,0.164 -0.011,0.339 -0.145,0.444 l -4.235,3.329 c -0.109,0.086 -0.254,0.112 -0.387,0.07 -0.132,-0.042 -0.235,-0.147 -0.275,-0.281 L -18.018,13.63 -18.4,12.383 -20.97,11.74 c -0.121,-0.03 -0.222,-0.113 -0.277,-0.225 -0.054,-0.112 -0.055,-0.243 -0.003,-0.357 l 1.501,-3.292 -4.038,-13.544 c -0.053,-0.175 0.015,-0.364 0.166,-0.467 l 1.057,-0.718 c 0.071,-0.048 0.154,-0.072 0.236,-0.072 0.103,0 0.206,0.038 0.286,0.112 l 6.133,5.703 c 0.057,0.052 0.098,0.119 0.119,0.193 l 2.557,9.071 5.341,1.352 2.147,-11.412 c 0.022,-0.121 0.097,-0.225 0.203,-0.286 0.106,-0.062 0.235,-0.073 0.35,-0.032 l 4.922,1.75 C -0.071,-0.413 0.044,-0.206 0,0 m -8.769,13.928 -3.284,-0.822 c -0.034,-0.009 -0.068,-0.013 -0.102,-0.013 -0.112,0 -0.221,0.045 -0.301,0.128 -0.104,0.107 -0.144,0.262 -0.103,0.406 l 2.107,7.473 c 0.053,0.188 0.231,0.312 0.425,0.305 0.196,-0.01 0.359,-0.153 0.393,-0.346 l 1.177,-6.651 c 0.039,-0.217 -0.098,-0.427 -0.312,-0.48"
         style="fill:#ffffff;fill-opacity:1;fill-rule:nonzero;stroke:none"
         transform="matrix(1.3333333,0,0,-1.3333333,1733.7055,718.778)" />
    </g>
    <g
       id="g377"
       transform="translate(-1435.1058,-7.6254296)">
      <path
         id="path378"
         d="m 0,0 c -0.094,0 -0.187,0.032 -0.262,0.091 l -7.167,5.703 c -0.076,0.06 -0.129,0.145 -0.149,0.24 l -1.975,9.174 c -0.012,0.056 -0.013,0.115 -10e-4,0.171 l 3.139,15.52 c 0.031,0.153 0.145,0.277 0.295,0.32 l 4.664,1.341 c 0.028,0.008 0.057,0.013 0.086,0.015 l 9.175,0.662 c 0.139,0.011 0.271,-0.048 0.357,-0.156 l 2.307,-2.878 c 0.077,-0.096 0.108,-0.221 0.085,-0.341 L 9.664,25.161 C 9.637,25.019 9.54,24.901 9.405,24.848 L 7.274,24.008 C 7.066,23.927 6.831,24.022 6.738,24.225 L 5.658,26.586 -1.046,25.265 -3.077,14.522 0.128,7.489 4.593,9.113 C 4.789,9.185 5.008,9.1 5.107,8.917 L 8.696,2.218 C 8.759,2.101 8.763,1.96 8.705,1.839 8.648,1.719 8.537,1.633 8.405,1.608 L 0.079,0.008 C 0.053,0.002 0.026,0 0,0"
         style="fill:#ffffff;fill-opacity:1;fill-rule:nonzero;stroke:none"
         transform="matrix(1.3333333,0,0,-1.3333333,1746.8412,726.5784)" />
    </g>
    <g
       id="g378"
       transform="translate(-1435.1058,-7.6254296)">
      <path
         id="path379"
         d="M 0,0 C -0.123,0 -0.24,0.054 -0.32,0.148 L -6.879,7.865 C -6.926,7.92 -6.957,7.987 -6.971,8.058 l -1.195,6.236 c -0.009,0.05 -0.01,0.101 -10e-4,0.151 l 2.366,13.625 c 0.02,0.115 0.087,0.217 0.186,0.28 l 4.496,2.907 c 0.052,0.033 0.11,0.055 0.172,0.063 l 7.811,1.052 c 0.069,0.009 0.139,10e-4 0.204,-0.024 l 6.543,-2.464 c 0.208,-0.078 0.319,-0.304 0.254,-0.516 L 12.02,23.359 c -0.056,-0.185 -0.231,-0.31 -0.427,-0.296 l -4.497,0.27 C 6.978,23.34 6.869,23.396 6.794,23.488 6.72,23.58 6.688,23.699 6.706,23.816 L 7.022,25.867 0.879,23.791 -0.979,14.625 -0.26,9.607 3.751,5.635 6.818,6.923 C 6.921,6.966 7.038,6.967 7.141,6.924 7.245,6.881 7.327,6.798 7.37,6.695 L 9.653,1.1 C 9.705,0.974 9.692,0.832 9.619,0.717 9.547,0.602 9.424,0.529 9.288,0.522 L 0.024,0.001 C 0.016,0 0.008,0 0,0"
         style="fill:#ffffff;fill-opacity:1;fill-rule:nonzero;stroke:none"
         transform="matrix(1.3333333,0,0,-1.3333333,1936.5464,726.86693)" />
    </g>
    <g
       id="g379"
       transform="translate(-1435.1058,-7.6254296)">
      <path
         id="path380"
         d="m 0,0 c -0.025,0 -0.05,0.002 -0.074,0.007 l -10.272,1.847 c -0.21,0.037 -0.359,0.227 -0.345,0.441 l 0.562,8.539 c 0.01,0.139 0.087,0.264 0.207,0.334 0.12,0.071 0.267,0.077 0.393,0.017 l 9.5,-4.532 3.702,4.709 -5.836,-1.305 c -0.091,-0.02 -0.185,-0.009 -0.269,0.029 l -3.203,1.491 c -0.062,0.029 -0.117,0.073 -0.158,0.128 l -4.796,6.359 c -0.116,0.154 -0.113,0.367 0.008,0.517 l 9.633,11.965 c 0.064,0.08 0.155,0.134 0.256,0.151 l 7.432,1.271 0.791,2.295 c 0.045,0.132 0.154,0.233 0.289,0.269 l 5.678,1.502 c 0.141,0.037 0.291,-10e-4 0.396,-0.101 0.106,-0.1 0.152,-0.248 0.123,-0.39 L 11.702,24.417 C 11.667,24.25 11.536,24.121 11.368,24.09 L 5.278,22.938 C 5.158,22.915 5.033,22.947 4.937,23.023 4.842,23.1 4.784,23.215 4.78,23.337 l -0.074,2.329 -0.995,0.362 -5.962,-8.038 14.489,1.156 c 0.143,0.011 0.279,-0.05 0.366,-0.162 0.086,-0.111 0.111,-0.26 0.065,-0.394 L 7.097,2.394 C 7.053,2.268 6.953,2.17 6.825,2.13 L 0.126,0.019 C 0.085,0.006 0.043,0 0,0"
         style="fill:#ffffff;fill-opacity:1;fill-rule:nonzero;stroke:none"
         transform="matrix(1.3333333,0,0,-1.3333333,1852.3296,729.1784)" />
    </g>
    <g
       id="g380"
       transform="translate(-1435.1058,-7.6254296)">
      <path
         id="path381"
         d="m 0,0 -1.243,3.592 c -0.028,0.082 -0.081,0.153 -0.151,0.204 l -3.941,2.836 c -0.092,0.066 -0.206,0.092 -0.318,0.072 l -16.766,-2.95 c -0.17,-0.03 -0.305,-0.162 -0.339,-0.332 l -1.546,-7.795 c -0.035,-0.178 0.048,-0.359 0.206,-0.448 0.158,-0.089 0.356,-0.066 0.49,0.057 l 2.987,2.739 0.907,-0.156 -0.49,-1.681 -4.809,-16.208 c -0.028,-0.096 -0.022,-0.198 0.018,-0.289 l 2.964,-6.743 c 0.048,-0.111 0.142,-0.195 0.258,-0.232 0.041,-0.013 0.084,-0.019 0.126,-0.019 0.076,0 0.152,0.02 0.218,0.06 l 1.726,1.046 c 0.086,0.052 0.15,0.134 0.182,0.23 l 4.931,15.267 5.541,1.476 c 0.017,0.005 0.035,0.01 0.051,0.017 l 4.311,1.775 c 0.079,0.033 0.147,0.09 0.193,0.162 l 4.451,6.956 C 0.026,-0.255 0.042,-0.121 0,0 m -5.68,-0.893 -8.63,-4.912 c -0.065,-0.036 -0.136,-0.055 -0.207,-0.055 -0.093,0 -0.186,0.031 -0.262,0.092 -0.134,0.107 -0.19,0.284 -0.141,0.449 l 1.643,5.496 c 0.057,0.19 0.238,0.312 0.438,0.298 l 6.986,-0.584 c 0.184,-0.015 0.336,-0.148 0.376,-0.328 0.039,-0.18 -0.043,-0.364 -0.203,-0.456"
         style="fill:#ffffff;fill-opacity:1;fill-rule:nonzero;stroke:none"
         transform="matrix(1.3333333,0,0,-1.3333333,1902.8452,691.4324)" />
    </g>
    <g
       id="g381"
       transform="translate(-1435.1058,-7.6254296)">
      <path
         id="path382"
         d="m 0,0 8.526,9.786 c 0.099,0.113 0.13,0.269 0.082,0.411 -0.048,0.142 -0.168,0.247 -0.314,0.277 l -3.23,0.659 -3.89,2.568 c -0.031,0.021 -0.064,0.037 -0.1,0.049 l -6.708,2.205 c -0.079,0.026 -0.165,0.028 -0.246,0.005 l -5.059,-1.439 c -0.124,-0.036 -0.224,-0.125 -0.273,-0.243 L -14.96,5.253 c -0.057,-0.138 -0.037,-0.296 0.053,-0.415 0.091,-0.119 0.237,-0.18 0.386,-0.163 l 2.672,0.328 -1.198,-1.373 c -0.035,-0.04 -0.063,-0.086 -0.08,-0.136 l -7.112,-20.15 c -0.072,-0.204 0.023,-0.43 0.22,-0.521 l 2.46,-1.134 c 0.056,-0.025 0.116,-0.038 0.176,-0.038 0.074,0 0.148,0.02 0.214,0.059 l 4.324,2.566 c 0.085,0.05 0.149,0.129 0.182,0.222 l 3.312,9.462 9.458,-11.603 c 0.109,-0.134 0.29,-0.187 0.453,-0.135 0.165,0.052 0.28,0.2 0.292,0.372 l 0.562,8.347 c 0.008,0.112 -0.03,0.223 -0.105,0.307 l -6.845,7.695 5.291,0.919 C -0.15,-0.121 -0.063,-0.073 0,0 M -7.749,1.666 C -7.823,1.611 -7.911,1.583 -8,1.583 c -0.084,0 -0.168,0.025 -0.24,0.075 -0.149,0.104 -0.214,0.291 -0.163,0.464 l 2.142,7.221 c 0.057,0.193 0.245,0.316 0.444,0.298 L 0.824,8.978 C 0.997,8.96 1.141,8.839 1.187,8.672 1.234,8.505 1.173,8.327 1.034,8.223 Z"
         style="fill:#ffffff;fill-opacity:1;fill-rule:nonzero;stroke:none"
         transform="matrix(1.3333333,0,0,-1.3333333,1832.996,703.6248)" />
    </g>
  </g>
</svg>
