<?xml version="1.0" encoding="UTF-8" standalone="no"?>
<!-- Created with Inkscape (http://www.inkscape.org/) -->

<svg
   version="1.1"
   id="svg1"
   width="635.17676"
   height="175.77896"
   viewBox="0 0 635.17676 175.77896"
   xmlns="http://www.w3.org/2000/svg"
   xmlns:svg="http://www.w3.org/2000/svg">
  <defs
     id="defs1">
    <clipPath
       clipPathUnits="userSpaceOnUse"
       id="clipPath8">
      <path
         d="M 64.1968,356.748 H 531.079 V 238.528 H 64.1968 Z"
         transform="translate(-236.41491,-278.27261)"
         id="path8" />
    </clipPath>
    <clipPath
       clipPathUnits="userSpaceOnUse"
       id="clipPath9">
      <path
         d="M 64.1968,356.748 H 531.079 V 238.528 H 64.1968 Z"
         transform="translate(-251.22871,-343.70771)"
         id="path9" />
    </clipPath>
    <clipPath
       clipPathUnits="userSpaceOnUse"
       id="clipPath10">
      <path
         d="M 64.1968,356.748 H 531.079 V 238.528 H 64.1968 Z"
         transform="translate(-251.22871,-343.70771)"
         id="path10" />
    </clipPath>
    <clipPath
       clipPathUnits="userSpaceOnUse"
       id="clipPath11">
      <path
         d="M 64.1968,356.748 H 531.079 V 238.528 H 64.1968 Z"
         transform="translate(-236.41491,-278.61461)"
         id="path11" />
    </clipPath>
    <clipPath
       clipPathUnits="userSpaceOnUse"
       id="clipPath12">
      <path
         d="M 64.1968,356.748 H 531.079 V 238.528 H 64.1968 Z"
         transform="translate(-483.26801,-281.12831)"
         id="path12" />
    </clipPath>
    <clipPath
       clipPathUnits="userSpaceOnUse"
       id="clipPath13">
      <path
         d="M 64.1968,356.748 H 531.079 V 238.528 H 64.1968 Z"
         transform="translate(-493.78711,-343.91901)"
         id="path13" />
    </clipPath>
    <clipPath
       clipPathUnits="userSpaceOnUse"
       id="clipPath14">
      <path
         d="M 64.1968,356.748 H 531.079 V 238.528 H 64.1968 Z"
         transform="translate(-493.78711,-343.91901)"
         id="path14" />
    </clipPath>
    <clipPath
       clipPathUnits="userSpaceOnUse"
       id="clipPath15">
      <path
         d="M 64.1968,356.748 H 531.079 V 238.528 H 64.1968 Z"
         transform="translate(-483.26801,-281.47021)"
         id="path15" />
    </clipPath>
    <clipPath
       clipPathUnits="userSpaceOnUse"
       id="clipPath16">
      <path
         d="M 64.1968,356.748 H 531.079 V 238.528 H 64.1968 Z"
         transform="translate(-227.0815,-277.3829)"
         id="path16" />
    </clipPath>
    <clipPath
       clipPathUnits="userSpaceOnUse"
       id="clipPath17">
      <path
         d="M 64.1968,356.748 H 531.079 V 238.528 H 64.1968 Z"
         transform="translate(-219.93591,-351.13091)"
         id="path17" />
    </clipPath>
    <clipPath
       clipPathUnits="userSpaceOnUse"
       id="clipPath18">
      <path
         d="M 64.1968,356.748 H 531.079 V 238.528 H 64.1968 Z"
         transform="translate(-219.93591,-351.13091)"
         id="path18" />
    </clipPath>
    <clipPath
       clipPathUnits="userSpaceOnUse"
       id="clipPath19">
      <path
         d="M 64.1968,356.748 H 531.079 V 238.528 H 64.1968 Z"
         transform="translate(-227.08131,-277.72471)"
         id="path19" />
    </clipPath>
    <clipPath
       clipPathUnits="userSpaceOnUse"
       id="clipPath20">
      <path
         d="M 64.1968,356.748 H 531.079 V 238.528 H 64.1968 Z"
         transform="translate(-76.659504,-279.38531)"
         id="path20" />
    </clipPath>
    <clipPath
       clipPathUnits="userSpaceOnUse"
       id="clipPath21">
      <path
         d="M 64.1968,356.748 H 531.079 V 238.528 H 64.1968 Z"
         transform="translate(-104.0587,-344.24611)"
         id="path21" />
    </clipPath>
    <clipPath
       clipPathUnits="userSpaceOnUse"
       id="clipPath22">
      <path
         d="M 64.1968,356.748 H 531.079 V 238.528 H 64.1968 Z"
         transform="translate(-104.0587,-344.24611)"
         id="path22" />
    </clipPath>
    <clipPath
       clipPathUnits="userSpaceOnUse"
       id="clipPath23">
      <path
         d="M 64.1968,356.748 H 531.079 V 238.528 H 64.1968 Z"
         transform="translate(-76.659902,-279.7271)"
         id="path23" />
    </clipPath>
    <clipPath
       clipPathUnits="userSpaceOnUse"
       id="clipPath24">
      <path
         d="M 64.1968,356.748 H 531.079 V 238.528 H 64.1968 Z"
         transform="translate(-392.44291,-277.64321)"
         id="path24" />
    </clipPath>
    <clipPath
       clipPathUnits="userSpaceOnUse"
       id="clipPath25">
      <path
         d="M 64.1968,356.748 H 531.079 V 238.528 H 64.1968 Z"
         transform="translate(-437.07571,-347.24621)"
         id="path25" />
    </clipPath>
    <clipPath
       clipPathUnits="userSpaceOnUse"
       id="clipPath26">
      <path
         d="M 64.1968,356.748 H 531.079 V 238.528 H 64.1968 Z"
         transform="translate(-437.07571,-347.24621)"
         id="path26" />
    </clipPath>
    <clipPath
       clipPathUnits="userSpaceOnUse"
       id="clipPath27">
      <path
         d="M 64.1968,356.748 H 531.079 V 238.528 H 64.1968 Z"
         transform="translate(-392.44251,-277.98521)"
         id="path27" />
    </clipPath>
    <clipPath
       clipPathUnits="userSpaceOnUse"
       id="clipPath28">
      <path
         d="M 64.1968,356.748 H 531.079 V 238.528 H 64.1968 Z"
         transform="translate(-119.1505,-277.2443)"
         id="path28" />
    </clipPath>
    <clipPath
       clipPathUnits="userSpaceOnUse"
       id="clipPath29">
      <path
         d="M 64.1968,356.748 H 531.079 V 238.528 H 64.1968 Z"
         transform="translate(-139.0393,-353.42441)"
         id="path29" />
    </clipPath>
    <clipPath
       clipPathUnits="userSpaceOnUse"
       id="clipPath30">
      <path
         d="M 64.1968,356.748 H 531.079 V 238.528 H 64.1968 Z"
         transform="translate(-139.0393,-353.42441)"
         id="path30" />
    </clipPath>
    <clipPath
       clipPathUnits="userSpaceOnUse"
       id="clipPath31">
      <path
         d="M 64.1968,356.748 H 531.079 V 238.528 H 64.1968 Z"
         transform="translate(-119.15091,-277.58621)"
         id="path31" />
    </clipPath>
    <clipPath
       clipPathUnits="userSpaceOnUse"
       id="clipPath32">
      <path
         d="M 64.1968,356.748 H 531.079 V 238.528 H 64.1968 Z"
         transform="translate(-181.9788,-279.3626)"
         id="path32" />
    </clipPath>
    <clipPath
       clipPathUnits="userSpaceOnUse"
       id="clipPath33">
      <path
         d="M 64.1968,356.748 H 531.079 V 238.528 H 64.1968 Z"
         transform="translate(-197.2752,-343.77851)"
         id="path33" />
    </clipPath>
    <clipPath
       clipPathUnits="userSpaceOnUse"
       id="clipPath34">
      <path
         d="M 64.1968,356.748 H 531.079 V 238.528 H 64.1968 Z"
         transform="translate(-197.2752,-343.77851)"
         id="path34" />
    </clipPath>
    <clipPath
       clipPathUnits="userSpaceOnUse"
       id="clipPath35">
      <path
         d="M 64.1968,356.748 H 531.079 V 238.528 H 64.1968 Z"
         transform="translate(-181.9786,-279.70441)"
         id="path35" />
    </clipPath>
    <clipPath
       clipPathUnits="userSpaceOnUse"
       id="clipPath36">
      <path
         d="M 64.1968,356.748 H 531.079 V 238.528 H 64.1968 Z"
         transform="translate(-459.76151,-278.9402)"
         id="path36" />
    </clipPath>
    <clipPath
       clipPathUnits="userSpaceOnUse"
       id="clipPath37">
      <path
         d="M 64.1968,356.748 H 531.079 V 238.528 H 64.1968 Z"
         transform="translate(-473.27211,-341.67111)"
         id="path37" />
    </clipPath>
    <clipPath
       clipPathUnits="userSpaceOnUse"
       id="clipPath38">
      <path
         d="M 64.1968,356.748 H 531.079 V 238.528 H 64.1968 Z"
         transform="translate(-473.27211,-341.67111)"
         id="path38" />
    </clipPath>
    <clipPath
       clipPathUnits="userSpaceOnUse"
       id="clipPath39">
      <path
         d="M 64.1968,356.748 H 531.079 V 238.528 H 64.1968 Z"
         transform="translate(-459.76141,-279.28201)"
         id="path39" />
    </clipPath>
    <clipPath
       clipPathUnits="userSpaceOnUse"
       id="clipPath40">
      <path
         d="M 64.1968,356.748 H 531.079 V 238.528 H 64.1968 Z"
         transform="translate(-336.44391,-275.5556)"
         id="path40" />
    </clipPath>
    <clipPath
       clipPathUnits="userSpaceOnUse"
       id="clipPath41">
      <path
         d="M 64.1968,356.748 H 531.079 V 238.528 H 64.1968 Z"
         transform="translate(-363.00691,-345.45711)"
         id="path41" />
    </clipPath>
    <clipPath
       clipPathUnits="userSpaceOnUse"
       id="clipPath42">
      <path
         d="M 64.1968,356.748 H 531.079 V 238.528 H 64.1968 Z"
         transform="translate(-363.00691,-345.45711)"
         id="path42" />
    </clipPath>
    <clipPath
       clipPathUnits="userSpaceOnUse"
       id="clipPath43">
      <path
         d="M 64.1968,356.748 H 531.079 V 238.528 H 64.1968 Z"
         transform="translate(-336.44391,-275.8973)"
         id="path43" />
    </clipPath>
    <clipPath
       clipPathUnits="userSpaceOnUse"
       id="clipPath44">
      <path
         d="M 64.1968,356.748 H 531.079 V 238.528 H 64.1968 Z"
         transform="translate(-368.15041,-277.4225)"
         id="path44" />
    </clipPath>
    <clipPath
       clipPathUnits="userSpaceOnUse"
       id="clipPath45">
      <path
         d="M 64.1968,356.748 H 531.079 V 238.528 H 64.1968 Z"
         transform="translate(-399.51831,-343.44981)"
         id="path45" />
    </clipPath>
    <clipPath
       clipPathUnits="userSpaceOnUse"
       id="clipPath46">
      <path
         d="M 64.1968,356.748 H 531.079 V 238.528 H 64.1968 Z"
         transform="translate(-399.51831,-343.44981)"
         id="path46" />
    </clipPath>
    <clipPath
       clipPathUnits="userSpaceOnUse"
       id="clipPath47">
      <path
         d="M 64.1968,356.748 H 531.079 V 238.528 H 64.1968 Z"
         transform="translate(-368.15051,-277.76431)"
         id="path47" />
    </clipPath>
    <clipPath
       clipPathUnits="userSpaceOnUse"
       id="clipPath48">
      <path
         d="M 64.1968,356.748 H 531.079 V 238.528 H 64.1968 Z"
         transform="translate(-274.19551,-277.14881)"
         id="path48" />
    </clipPath>
    <clipPath
       clipPathUnits="userSpaceOnUse"
       id="clipPath49">
      <path
         d="M 64.1968,356.748 H 531.079 V 238.528 H 64.1968 Z"
         transform="translate(-296.8789,-343.68591)"
         id="path49" />
    </clipPath>
    <clipPath
       clipPathUnits="userSpaceOnUse"
       id="clipPath50">
      <path
         d="M 64.1968,356.748 H 531.079 V 238.528 H 64.1968 Z"
         transform="translate(-296.8789,-343.68591)"
         id="path50" />
    </clipPath>
    <clipPath
       clipPathUnits="userSpaceOnUse"
       id="clipPath51">
      <path
         d="M 64.1968,356.748 H 531.079 V 238.528 H 64.1968 Z"
         transform="translate(-274.19541,-277.49071)"
         id="path51" />
    </clipPath>
    <clipPath
       clipPathUnits="userSpaceOnUse"
       id="clipPath52">
      <path
         d="M 64.1968,356.748 H 531.079 V 238.528 H 64.1968 Z"
         transform="translate(-156.6052,-242.08201)"
         id="path52" />
    </clipPath>
    <clipPath
       clipPathUnits="userSpaceOnUse"
       id="clipPath53">
      <path
         d="M 64.1968,356.748 H 531.079 V 238.528 H 64.1968 Z"
         transform="translate(-169.98531,-242.08201)"
         id="path53" />
    </clipPath>
    <clipPath
       clipPathUnits="userSpaceOnUse"
       id="clipPath54">
      <path
         d="M 64.1968,356.748 H 531.079 V 238.528 H 64.1968 Z"
         transform="translate(-185.6269,-254.4095)"
         id="path54" />
    </clipPath>
    <clipPath
       clipPathUnits="userSpaceOnUse"
       id="clipPath55">
      <path
         d="M 64.1968,356.748 H 531.079 V 238.528 H 64.1968 Z"
         transform="translate(-204.41451,-254.4095)"
         id="path55" />
    </clipPath>
    <clipPath
       clipPathUnits="userSpaceOnUse"
       id="clipPath56">
      <path
         d="M 64.1968,356.748 H 531.079 V 238.528 H 64.1968 Z"
         transform="translate(-224.40441,-254.4095)"
         id="path56" />
    </clipPath>
    <clipPath
       clipPathUnits="userSpaceOnUse"
       id="clipPath57">
      <path
         d="M 64.1968,356.748 H 531.079 V 238.528 H 64.1968 Z"
         transform="translate(-240.51321,-254.4095)"
         id="path57" />
    </clipPath>
    <clipPath
       clipPathUnits="userSpaceOnUse"
       id="clipPath58">
      <path
         d="M 64.1968,356.748 H 531.079 V 238.528 H 64.1968 Z"
         transform="translate(-258.601,-254.4095)"
         id="path58" />
    </clipPath>
    <clipPath
       clipPathUnits="userSpaceOnUse"
       id="clipPath59">
      <path
         d="M 64.1968,356.748 H 531.079 V 238.528 H 64.1968 Z"
         transform="translate(-276.5449,-254.4095)"
         id="path59" />
    </clipPath>
    <clipPath
       clipPathUnits="userSpaceOnUse"
       id="clipPath60">
      <path
         d="M 64.1968,356.748 H 531.079 V 238.528 H 64.1968 Z"
         transform="translate(-294.50311,-254.4095)"
         id="path60" />
    </clipPath>
    <clipPath
       clipPathUnits="userSpaceOnUse"
       id="clipPath61">
      <path
         d="M 64.1968,356.748 H 531.079 V 238.528 H 64.1968 Z"
         transform="translate(-313.49891,-254.4095)"
         id="path61" />
    </clipPath>
    <clipPath
       clipPathUnits="userSpaceOnUse"
       id="clipPath62">
      <path
         d="M 64.1968,356.748 H 531.079 V 238.528 H 64.1968 Z"
         transform="translate(-332.04101,-247.8329)"
         id="path62" />
    </clipPath>
    <clipPath
       clipPathUnits="userSpaceOnUse"
       id="clipPath63">
      <path
         d="M 64.1968,356.748 H 531.079 V 238.528 H 64.1968 Z"
         transform="translate(-352.22601,-254.4095)"
         id="path63" />
    </clipPath>
    <clipPath
       clipPathUnits="userSpaceOnUse"
       id="clipPath64">
      <path
         d="M 64.1968,356.748 H 531.079 V 238.528 H 64.1968 Z"
         transform="translate(-370.16921,-254.4095)"
         id="path64" />
    </clipPath>
    <clipPath
       clipPathUnits="userSpaceOnUse"
       id="clipPath65">
      <path
         d="M 64.1968,356.748 H 531.079 V 238.528 H 64.1968 Z"
         transform="translate(-388.12751,-254.4095)"
         id="path65" />
    </clipPath>
    <clipPath
       clipPathUnits="userSpaceOnUse"
       id="clipPath66">
      <path
         d="M 64.1968,356.748 H 531.079 V 238.528 H 64.1968 Z"
         transform="translate(-406.71431,-239.97361)"
         id="path66" />
    </clipPath>
    <clipPath
       clipPathUnits="userSpaceOnUse"
       id="clipPath67">
      <path
         d="M 64.1968,356.748 H 531.079 V 238.528 H 64.1968 Z"
         transform="translate(-420.07421,-239.97361)"
         id="path67" />
    </clipPath>
  </defs>
  <g
     id="g1"
     transform="translate(-77.6447,-309.5004)">
    <g
       id="g127">
      <path
         d="m 0,0 c -0.041,0 -0.083,0.002 -0.124,0.007 l -3.338,0.375 c -0.33,0.037 -0.627,0.219 -0.814,0.5 -0.187,0.28 -0.244,0.63 -0.158,0.958 l 6.674,25.28 -2.755,0.854 c -0.336,0.104 -0.606,0.363 -0.731,0.699 -0.125,0.337 -0.091,0.714 0.093,1.021 l 3.161,5.272 c 0.154,0.256 0.398,0.442 0.682,0.517 l 2.026,0.539 5.824,19.058 3.189,10.694 c 0.102,0.341 0.351,0.616 0.676,0.744 0.132,0.053 0.271,0.079 0.409,0.079 0.202,0 0.402,-0.055 0.579,-0.163 l 7.961,-4.842 21.695,2.298 c 0.039,0.004 0.078,0.006 0.117,0.006 0.361,0 0.703,-0.176 0.918,-0.479 0.238,-0.336 0.283,-0.776 0.118,-1.155 L 41.238,50.839 c -0.167,-0.385 -0.525,-0.647 -0.935,-0.685 l -19.232,-1.767 -2.405,-9.133 11.756,2.509 c 0.078,0.016 0.155,0.024 0.232,0.024 0.327,0 0.643,-0.145 0.861,-0.405 l 5.051,-6.028 c 0.363,-0.433 0.365,-1.071 0.005,-1.507 l -2.667,-3.226 c -0.161,-0.194 -0.378,-0.329 -0.621,-0.384 l -18.189,-4.118 -4.316,-12.993 21.236,3.28 c 0.056,0.008 0.113,0.013 0.169,0.013 0.344,0 0.672,-0.16 0.889,-0.441 0.253,-0.326 0.315,-0.766 0.165,-1.153 L 29.761,5.927 C 29.615,5.555 29.291,5.285 28.905,5.215 L 0.197,0.018 C 0.132,0.006 0.066,0 0,0"
         style="fill:#d1eaf0;fill-opacity:1;fill-rule:nonzero;stroke:none"
         transform="matrix(1.3333333,0,0,-1.3333333,315.21987,422.6712)"
         clip-path="url(#clipPath8)"
         id="path68" />
      <path
         d="m 0,0 8.284,-5.039 22.068,2.338 -4.964,-11.423 -20.02,-1.84 -3.092,-11.74 13.564,2.894 5.052,-6.027 -2.668,-3.226 -18.812,-4.26 -5.123,-15.419 23.08,3.564 -3.476,-8.898 -28.707,-5.197 -3.338,0.375 6.96,26.368 -3.808,1.181 3.161,5.273 2.636,0.701 6.012,19.673 z M 0,2.324 C -0.277,2.324 -0.555,2.272 -0.819,2.167 -1.469,1.91 -1.967,1.361 -2.17,0.679 l -3.191,-10.703 -5.632,-18.426 -1.417,-0.377 c -0.567,-0.151 -1.056,-0.522 -1.363,-1.034 l -3.161,-5.273 c -0.368,-0.613 -0.437,-1.367 -0.187,-2.04 0.25,-0.674 0.79,-1.19 1.464,-1.399 l 1.7,-0.527 -6.386,-24.192 c -0.173,-0.656 -0.057,-1.356 0.316,-1.916 0.374,-0.561 0.968,-0.926 1.627,-1 l 3.339,-0.375 c 0.082,-0.009 0.165,-0.014 0.247,-0.014 0.132,0 0.265,0.012 0.395,0.036 l 28.707,5.197 c 0.773,0.14 1.421,0.679 1.712,1.425 l 3.476,8.898 c 0.302,0.773 0.177,1.653 -0.328,2.306 -0.434,0.561 -1.092,0.88 -1.779,0.88 -0.112,0 -0.225,-0.008 -0.338,-0.026 l -19.392,-2.994 3.51,10.566 17.565,3.977 c 0.485,0.109 0.921,0.379 1.242,0.767 l 2.667,3.226 c 0.721,0.871 0.716,2.149 -0.01,3.015 l -5.051,6.028 c -0.436,0.52 -1.067,0.81 -1.722,0.81 -0.154,0 -0.309,-0.016 -0.463,-0.049 l -9.949,-2.123 1.719,6.525 18.444,1.695 c 0.82,0.075 1.535,0.6 1.87,1.37 l 4.964,11.423 c 0.329,0.757 0.239,1.637 -0.237,2.309 -0.429,0.606 -1.114,0.959 -1.836,0.959 -0.078,0 -0.156,-0.004 -0.234,-0.012 L 8.797,-2.648 1.159,1.998 C 0.804,2.214 0.403,2.324 0,2.324"
         style="fill:#004563;fill-opacity:1;fill-rule:nonzero;stroke:none"
         transform="matrix(1.3333333,0,0,-1.3333333,334.9716,335.4244)"
         clip-path="url(#clipPath9)"
         id="path69" />
      <path
         d="m 0,0 8.284,-5.039 22.068,2.338 -4.964,-11.423 -20.02,-1.84 -3.092,-11.74 13.564,2.894 5.052,-6.027 -2.668,-3.226 -18.812,-4.26 -5.123,-15.419 23.08,3.564 -3.476,-8.898 -28.707,-5.197 -3.338,0.375 6.96,26.368 -3.808,1.181 3.161,5.273 2.636,0.701 6.012,19.673 z M 0,1.69 C -0.201,1.69 -0.403,1.652 -0.596,1.576 -1.068,1.389 -1.43,0.99 -1.578,0.493 l -3.191,-10.702 -5.736,-18.766 -1.749,-0.466 c -0.413,-0.109 -0.768,-0.379 -0.991,-0.751 l -3.161,-5.273 c -0.268,-0.446 -0.318,-0.995 -0.137,-1.484 0.182,-0.49 0.575,-0.866 1.065,-1.018 l 2.275,-0.705 -6.542,-24.786 c -0.126,-0.476 -0.042,-0.985 0.229,-1.393 0.272,-0.408 0.705,-0.674 1.184,-0.727 l 3.338,-0.375 c 0.06,-0.007 0.12,-0.01 0.18,-0.01 0.096,0 0.192,0.009 0.287,0.026 l 28.708,5.197 c 0.562,0.102 1.033,0.494 1.245,1.036 l 3.475,8.898 c 0.22,0.563 0.129,1.202 -0.238,1.677 -0.316,0.408 -0.794,0.641 -1.294,0.641 -0.082,0 -0.164,-0.006 -0.246,-0.019 l -20.398,-3.15 3.95,11.889 17.905,4.054 c 0.353,0.08 0.67,0.276 0.903,0.558 l 2.668,3.227 c 0.524,0.633 0.521,1.562 -0.007,2.192 l -5.051,6.028 c -0.317,0.378 -0.777,0.589 -1.253,0.589 -0.112,0 -0.224,-0.011 -0.337,-0.035 l -10.934,-2.334 2.092,7.948 18.874,1.734 c 0.597,0.055 1.117,0.436 1.361,0.996 l 4.963,11.423 c 0.24,0.551 0.174,1.191 -0.172,1.68 -0.312,0.441 -0.81,0.697 -1.335,0.697 -0.057,0 -0.113,-0.003 -0.17,-0.009 L 8.657,-3.3 0.843,1.453 C 0.585,1.61 0.293,1.69 0,1.69"
         style="fill:#005478;fill-opacity:1;fill-rule:nonzero;stroke:none"
         transform="matrix(1.3333333,0,0,-1.3333333,334.9716,335.4244)"
         clip-path="url(#clipPath10)"
         id="path70" />
      <path
         d="M 0,0 C -0.03,0 -0.061,0.002 -0.091,0.005 L -3.43,0.38 C -3.667,0.406 -3.881,0.535 -4.015,0.731 -4.15,0.928 -4.192,1.173 -4.131,1.404 l 6.76,25.609 -3.058,0.948 c -0.24,0.074 -0.433,0.255 -0.523,0.49 -0.09,0.235 -0.067,0.499 0.063,0.715 l 3.161,5.272 c 0.109,0.183 0.286,0.316 0.492,0.371 l 2.196,0.584 5.879,19.237 3.189,10.697 c 0.073,0.244 0.254,0.44 0.491,0.531 0.238,0.091 0.504,0.068 0.721,-0.064 l 8.046,-4.895 21.793,2.309 c 0.291,0.028 0.575,-0.095 0.747,-0.33 0.173,-0.235 0.208,-0.545 0.091,-0.812 L 40.954,50.643 c -0.12,-0.275 -0.379,-0.463 -0.678,-0.49 l -19.448,-1.787 -2.606,-9.897 12.261,2.616 c 0.297,0.063 0.604,-0.042 0.8,-0.275 l 5.051,-6.027 c 0.254,-0.304 0.255,-0.745 0.003,-1.05 L 33.67,30.507 C 33.554,30.367 33.396,30.27 33.219,30.23 L 14.858,26.072 10.304,12.366 32.058,15.725 c 0.291,0.045 0.581,-0.069 0.765,-0.297 0.183,-0.229 0.23,-0.538 0.124,-0.811 L 29.471,5.719 C 29.367,5.454 29.134,5.261 28.853,5.21 L 0.146,0.013 C 0.098,0.004 0.049,0 0,0 M -2.303,1.904 -0.028,1.648 28.11,6.742 30.901,13.887 9.228,10.54 C 8.946,10.496 8.661,10.604 8.477,10.822 8.292,11.04 8.235,11.338 8.325,11.609 l 5.123,15.42 c 0.09,0.272 0.317,0.477 0.597,0.541 l 18.539,4.198 2.054,2.484 -4.295,5.127 -13.082,-2.792 c -0.279,-0.06 -0.568,0.03 -0.764,0.236 -0.197,0.206 -0.273,0.499 -0.2,0.774 l 3.092,11.741 c 0.087,0.334 0.374,0.576 0.717,0.608 l 19.537,1.796 4.209,9.687 -20.668,-2.19 c -0.18,-0.018 -0.359,0.021 -0.513,0.115 L 15.296,63.84 12.409,54.157 6.395,34.478 C 6.312,34.208 6.095,33.999 5.821,33.926 L 3.507,33.31 1.054,29.218 3.865,28.346 c 0.42,-0.13 0.662,-0.568 0.55,-0.992 z M 33.038,31.03 h 0.004 z"
         style="fill:#009fe3;fill-opacity:1;fill-rule:nonzero;stroke:none"
         transform="matrix(1.3333333,0,0,-1.3333333,315.21987,422.2152)"
         clip-path="url(#clipPath11)"
         id="path71" />
      <path
         d="m 0,0 c -0.453,0 -0.865,0.277 -1.044,0.708 l -4.39,10.583 c -0.103,0.248 -0.118,0.523 -0.045,0.781 l 3.538,12.385 -4.372,0.316 c -0.326,0.024 -0.626,0.19 -0.823,0.457 -0.198,0.266 -0.273,0.607 -0.208,0.935 l 1.646,8.242 c 0.096,0.48 0.475,0.847 0.949,0.917 l 6.237,0.925 7.945,26.878 c 0.096,0.324 0.324,0.588 0.625,0.725 0.147,0.067 0.304,0.101 0.461,0.101 0.165,0 0.331,-0.037 0.484,-0.111 l 11.667,-5.628 21.754,2.304 c 0.039,0.004 0.078,0.007 0.117,0.007 0.361,0 0.703,-0.177 0.918,-0.48 0.238,-0.336 0.283,-0.776 0.118,-1.155 L 40.613,47.467 c -0.178,-0.41 -0.572,-0.679 -1.011,-0.689 l -21.43,-0.489 -2.71,-10.793 c 0,0 15.873,0.171 15.877,0.171 0.473,0 0.898,-0.301 1.063,-0.757 l 2.137,-5.879 c 0.117,-0.325 0.088,-0.687 -0.082,-0.987 L 32.595,24.745 C 32.408,24.414 32.073,24.198 31.701,24.168 L 11.979,22.602 8.747,12.25 30.668,14.68 c 0.04,0.005 0.081,0.007 0.122,0.007 0.339,0 0.662,-0.155 0.879,-0.428 0.242,-0.304 0.318,-0.714 0.201,-1.088 L 28.509,2.423 C 28.366,1.965 27.962,1.645 27.494,1.618 L 0.066,0.002 C 0.044,0.001 0.022,0 0,0"
         style="fill:#d1eaf0;fill-opacity:1;fill-rule:nonzero;stroke:none"
         transform="matrix(1.3333333,0,0,-1.3333333,644.35733,418.8636)"
         clip-path="url(#clipPath12)"
         id="path72" />
      <path
         d="m 0,0 11.953,-5.766 22.068,2.338 -4.963,-11.423 -22.29,-0.509 -3.292,-13.113 17.343,0.187 2.137,-5.879 -1.862,-3.299 -20.482,-1.627 -3.996,-12.797 23.655,2.622 -3.362,-10.747 -27.428,-1.616 -4.39,10.584 3.933,13.768 -5.776,0.418 1.647,8.243 6.951,1.03 z m 34.021,-3.428 h 0.003 M 0,2.324 c -0.314,0 -0.628,-0.067 -0.922,-0.201 -0.602,-0.274 -1.059,-0.803 -1.25,-1.45 l -7.736,-26.171 -5.522,-0.819 c -0.948,-0.14 -1.707,-0.874 -1.899,-1.834 l -1.646,-8.242 c -0.131,-0.656 0.021,-1.337 0.416,-1.87 0.395,-0.533 0.995,-0.866 1.647,-0.913 l 2.968,-0.215 -3.143,-11.002 c -0.147,-0.515 -0.116,-1.067 0.089,-1.561 l 4.391,-10.583 c 0.357,-0.862 1.182,-1.415 2.088,-1.415 0.043,0 0.087,10e-4 0.131,0.003 l 27.427,1.616 c 0.938,0.055 1.745,0.696 2.031,1.611 l 3.362,10.748 c 0.234,0.749 0.082,1.568 -0.403,2.177 -0.434,0.544 -1.081,0.855 -1.758,0.855 -0.081,0 -0.163,-0.004 -0.245,-0.013 l -20.186,-2.239 2.468,7.907 18.961,1.506 c 0.746,0.059 1.415,0.491 1.79,1.154 l 1.862,3.299 c 0.338,0.6 0.398,1.324 0.162,1.973 l -2.137,5.88 c -0.331,0.91 -1.179,1.513 -2.126,1.513 -0.008,0 -0.017,0 -0.025,0 l -14.385,-0.155 2.128,8.473 20.57,0.47 c 0.878,0.02 1.666,0.557 2.023,1.378 l 4.933,11.352 c 0.146,0.307 0.228,0.652 0.228,1.016 0,1.272 -0.997,2.305 -2.235,2.323 -0.012,0 -0.023,10e-4 -0.035,10e-4 -0.024,0 -0.048,-10e-4 -0.072,-0.002 -0.065,-0.002 -0.129,-0.007 -0.193,-0.014 L 12.349,-3.388 0.967,2.102 C 0.661,2.25 0.331,2.324 0,2.324"
         style="fill:#004563;fill-opacity:1;fill-rule:nonzero;stroke:none"
         transform="matrix(1.3333333,0,0,-1.3333333,658.3828,335.14267)"
         clip-path="url(#clipPath13)"
         id="path73" />
      <path
         d="m 0,0 11.953,-5.766 22.068,2.338 -4.963,-11.423 -22.29,-0.509 -3.292,-13.113 17.343,0.187 2.137,-5.879 -1.862,-3.299 -20.482,-1.627 -3.996,-12.797 23.655,2.622 -3.362,-10.747 -27.428,-1.616 -4.39,10.584 3.933,13.768 -5.776,0.418 1.647,8.243 6.951,1.03 z m 34.021,-3.428 h 0.003 M 0,1.69 C -0.228,1.69 -0.457,1.641 -0.67,1.544 -1.109,1.345 -1.441,0.96 -1.579,0.49 l -7.85,-26.558 -5.913,-0.876 c -0.689,-0.102 -1.241,-0.636 -1.38,-1.334 l -1.647,-8.242 c -0.095,-0.477 0.015,-0.972 0.303,-1.36 0.287,-0.388 0.724,-0.63 1.198,-0.664 l 3.733,-0.271 -3.358,-11.756 c -0.107,-0.374 -0.084,-0.776 0.065,-1.135 l 4.39,-10.584 c 0.26,-0.626 0.86,-1.029 1.519,-1.029 0.032,0 0.063,0.001 0.095,0.003 l 27.428,1.616 c 0.681,0.04 1.269,0.506 1.477,1.171 l 3.361,10.748 c 0.171,0.545 0.06,1.141 -0.293,1.584 -0.315,0.395 -0.786,0.621 -1.278,0.621 -0.059,0 -0.119,-0.003 -0.178,-0.01 l -21.133,-2.342 2.886,9.24 19.375,1.539 c 0.543,0.043 1.029,0.357 1.302,0.839 l 1.862,3.299 c 0.246,0.437 0.289,0.963 0.118,1.435 l -2.137,5.88 c -0.241,0.662 -0.858,1.1 -1.547,1.1 -0.005,0 -0.011,0 -0.017,0 L 5.61,-26.76 l 2.445,9.739 21.04,0.48 c 0.638,0.015 1.211,0.405 1.47,1.003 l 4.94,11.366 c 0.107,0.225 0.168,0.477 0.168,0.744 0,0.928 -0.73,1.682 -1.635,1.69 -0.006,0 -0.011,0 -0.016,0 -0.014,0 -0.029,0 -0.043,-0.001 -0.051,-10e-4 -0.101,-0.005 -0.15,-0.011 L 12.241,-4.037 0.703,1.529 C 0.481,1.636 0.24,1.69 0,1.69"
         style="fill:#005478;fill-opacity:1;fill-rule:nonzero;stroke:none"
         transform="matrix(1.3333333,0,0,-1.3333333,658.3828,335.14267)"
         clip-path="url(#clipPath14)"
         id="path74" />
      <path
         d="m 0,0 c -0.33,0 -0.629,0.198 -0.757,0.506 l -4.39,10.584 c -0.071,0.171 -0.082,0.361 -0.031,0.539 l 3.656,12.798 -4.77,0.345 c -0.234,0.018 -0.451,0.134 -0.593,0.322 -0.142,0.187 -0.198,0.426 -0.151,0.657 l 1.646,8.242 c 0.068,0.339 0.341,0.6 0.684,0.651 l 6.433,0.953 8.006,27.084 c 0.068,0.231 0.234,0.42 0.454,0.518 0.22,0.097 0.472,0.093 0.688,-0.012 l 11.743,-5.664 21.836,2.313 c 0.293,0.031 0.576,-0.095 0.748,-0.33 0.172,-0.235 0.207,-0.545 0.091,-0.812 L 40.329,47.271 C 40.201,46.978 39.915,46.785 39.595,46.778 L 17.931,46.283 15.049,34.807 31.33,34.983 c 0.351,0.012 0.66,-0.213 0.779,-0.54 l 2.137,-5.879 c 0.081,-0.225 0.061,-0.475 -0.057,-0.683 L 32.327,24.582 C 32.193,24.344 31.95,24.189 31.678,24.167 l -19.93,-1.583 -3.456,-11.07 22.407,2.484 c 0.276,0.033 0.547,-0.079 0.724,-0.293 0.175,-0.214 0.232,-0.502 0.149,-0.767 L 28.211,2.191 C 28.109,1.866 27.817,1.637 27.476,1.617 L 0.048,0.001 C 0.032,0 0.016,0 0,0 M -3.523,11.454 0.534,1.673 26.815,3.221 29.633,12.23 7.225,9.746 C 6.948,9.715 6.678,9.826 6.502,10.039 6.326,10.253 6.27,10.541 6.352,10.805 l 3.996,12.797 c 0.1,0.32 0.384,0.546 0.718,0.573 l 20.047,1.592 1.462,2.591 -1.809,4.979 -16.762,-0.181 h -0.009 c -0.251,0 -0.488,0.115 -0.644,0.312 -0.157,0.2 -0.213,0.461 -0.151,0.708 l 3.292,13.112 c 0.09,0.358 0.408,0.612 0.777,0.62 l 21.765,0.497 4.194,9.652 -20.669,-2.19 c -0.152,-0.015 -0.305,0.011 -0.443,0.077 L 11.032,61.291 3.151,34.63 C 3.061,34.324 2.801,34.098 2.485,34.052 l -6.38,-0.946 -1.351,-6.765 4.848,-0.351 C -0.151,25.972 0.074,25.844 0.215,25.642 0.357,25.439 0.4,25.184 0.331,24.947 Z m 43.1,36.144 h 0.004 z"
         style="fill:#009fe3;fill-opacity:1;fill-rule:nonzero;stroke:none"
         transform="matrix(1.3333333,0,0,-1.3333333,644.35733,418.40773)"
         clip-path="url(#clipPath15)"
         id="path75" />
      <path
         d="m 0,0 c -0.258,0 -0.513,0.09 -0.718,0.263 l -4.528,3.793 c -0.15,0.125 -0.267,0.288 -0.337,0.473 l -8.816,22.916 -0.505,-0.423 -5.255,-24.133 c -0.102,-0.472 -0.48,-0.829 -0.947,-0.898 -0.053,-0.008 -0.108,-0.011 -0.161,-0.011 -0.409,0 -0.792,0.227 -0.993,0.601 l -7.191,13.38 c -0.128,0.238 -0.17,0.514 -0.12,0.78 l 9.055,48.048 c 0.054,0.288 0.213,0.545 0.444,0.718 l 12.257,9.179 c 0.198,0.149 0.434,0.224 0.669,0.224 0.215,0 0.43,-0.063 0.619,-0.188 0.394,-0.262 0.59,-0.748 0.491,-1.219 l -5.512,-26.144 21.685,18.937 c 0.171,0.149 0.381,0.243 0.604,0.27 l 7.774,0.937 c 0.045,0.005 0.089,0.008 0.133,0.008 0.337,0 0.661,-0.155 0.877,-0.426 0.246,-0.306 0.321,-0.72 0.201,-1.096 L 15.61,53.063 C 15.545,52.857 15.424,52.674 15.262,52.535 L -3.176,36.649 4.234,13.465 C 4.303,13.25 4.309,13.019 4.251,12.8 L 1.095,0.858 C 0.995,0.478 0.713,0.176 0.347,0.055 0.233,0.018 0.116,0 0,0"
         style="fill:#d1eaf0;fill-opacity:1;fill-rule:nonzero;stroke:none"
         transform="matrix(1.3333333,0,0,-1.3333333,302.77533,423.85747)"
         clip-path="url(#clipPath16)"
         id="path76" />
      <path
         d="m 0,0 -6.22,-29.503 24.239,21.167 7.774,0.937 -4.116,-12.925 -19.025,-16.391 7.649,-23.929 -3.156,-11.942 -4.527,3.793 -9.387,24.398 -2.012,-1.686 -5.34,-24.525 -7.191,13.379 9.056,48.048 z m 25.793,-7.399 h 0.002 M 0,2.324 c -0.471,0 -0.942,-0.15 -1.34,-0.448 l -12.256,-9.179 c -0.463,-0.347 -0.78,-0.859 -0.889,-1.435 l -9.055,-48.048 c -0.1,-0.533 -0.015,-1.086 0.24,-1.561 l 7.191,-13.38 c 0.403,-0.749 1.169,-1.203 1.988,-1.203 0.106,0 0.214,0.008 0.321,0.023 0.935,0.137 1.689,0.852 1.894,1.795 l 4.69,21.54 7.723,-20.073 c 0.142,-0.369 0.374,-0.695 0.674,-0.946 l 4.527,-3.793 c 0.411,-0.345 0.921,-0.526 1.438,-0.526 0.232,0 0.465,0.037 0.692,0.111 0.733,0.241 1.297,0.845 1.498,1.606 l 3.155,11.942 c 0.116,0.437 0.104,0.899 -0.034,1.329 l -7.171,22.439 17.852,15.381 c 0.324,0.279 0.565,0.645 0.697,1.057 l 4.09,12.846 c 0.09,0.249 0.138,0.519 0.138,0.8 0,1.274 -1,2.309 -2.241,2.323 -0.01,0 -0.019,0 -0.028,0 -0.021,0 -0.042,0 -0.063,0 -0.08,-0.003 -0.159,-0.009 -0.237,-0.02 l -7.74,-0.932 C 17.308,-6.082 16.888,-6.27 16.546,-6.568 L -2.585,-23.275 2.218,-0.49 C 2.417,0.453 2.026,1.423 1.236,1.949 0.859,2.199 0.429,2.324 0,2.324 m 0,-4.648 h 0.002 z"
         style="fill:#004563;fill-opacity:1;fill-rule:nonzero;stroke:none"
         transform="matrix(1.3333333,0,0,-1.3333333,293.24787,325.5268)"
         clip-path="url(#clipPath17)"
         id="path77" />
      <path
         d="m 0,0 -6.22,-29.503 24.239,21.167 7.774,0.937 -4.116,-12.925 -19.025,-16.391 7.649,-23.929 -3.156,-11.942 -4.527,3.793 -9.387,24.398 -2.012,-1.686 -5.34,-24.525 -7.191,13.379 9.056,48.048 z m 25.793,-7.399 h 0.002 M 0,1.69 c -0.343,0 -0.685,-0.109 -0.974,-0.326 l -12.257,-9.179 c -0.336,-0.252 -0.567,-0.625 -0.646,-1.044 l -9.055,-48.048 c -0.073,-0.387 -0.011,-0.789 0.174,-1.135 l 7.192,-13.379 c 0.293,-0.545 0.85,-0.875 1.445,-0.875 0.077,0 0.156,0.005 0.234,0.017 0.679,0.099 1.228,0.619 1.377,1.305 l 5.13,23.559 8.462,-21.997 c 0.104,-0.269 0.273,-0.506 0.491,-0.689 L 6.1,-73.894 c 0.299,-0.25 0.67,-0.382 1.045,-0.382 0.169,0 0.339,0.027 0.504,0.081 0.533,0.175 0.943,0.614 1.089,1.168 l 3.156,11.941 c 0.084,0.318 0.075,0.654 -0.025,0.967 l -7.302,22.845 18.173,15.656 c 0.235,0.203 0.411,0.47 0.506,0.77 l 4.096,12.861 c 0.066,0.183 0.103,0.381 0.103,0.588 0,0.929 -0.731,1.683 -1.637,1.69 -0.005,0 -0.01,0 -0.014,0 -0.015,0 -0.029,0 -0.043,-0.001 -0.059,-0.001 -0.118,-0.006 -0.175,-0.014 l -7.75,-0.933 c -0.324,-0.04 -0.63,-0.176 -0.878,-0.393 L -3.577,-24.974 1.613,-0.357 C 1.758,0.329 1.473,1.035 0.899,1.417 0.625,1.599 0.312,1.69 0,1.69 m 0,-3.38 h 0.002 z"
         style="fill:#005478;fill-opacity:1;fill-rule:nonzero;stroke:none"
         transform="matrix(1.3333333,0,0,-1.3333333,293.24787,325.5268)"
         clip-path="url(#clipPath18)"
         id="path78" />
      <path
         d="m 0,0 c -0.19,0 -0.377,0.066 -0.527,0.191 l -4.527,3.794 c -0.107,0.089 -0.189,0.204 -0.239,0.334 l -8.974,23.326 -0.918,-0.768 -5.28,-24.252 c -0.073,-0.335 -0.347,-0.59 -0.687,-0.637 -0.34,-0.049 -0.674,0.121 -0.836,0.424 l -7.191,13.379 c -0.089,0.165 -0.119,0.356 -0.084,0.54 l 9.055,48.048 c 0.038,0.202 0.151,0.382 0.315,0.505 l 12.256,9.179 c 0.273,0.204 0.645,0.218 0.933,0.034 0.287,-0.183 0.431,-0.526 0.361,-0.86 l -5.714,-27.103 22.391,19.554 c 0.124,0.108 0.278,0.177 0.441,0.196 l 7.775,0.937 c 0.279,0.033 0.552,-0.076 0.73,-0.291 0.178,-0.215 0.234,-0.506 0.149,-0.772 L 15.314,52.833 C 15.267,52.688 15.182,52.559 15.067,52.461 L -3.546,36.424 3.937,13.011 C 3.984,12.863 3.988,12.703 3.948,12.552 L 0.793,0.611 C 0.721,0.339 0.516,0.123 0.248,0.038 0.167,0.013 0.083,0 0,0 M -3.838,5.106 -0.463,2.278 2.302,12.74 -5.274,36.442 c -0.1,0.313 -0.003,0.656 0.246,0.87 L 13.821,53.552 17.48,65.04 11.222,64.286 -12.826,43.285 c -0.265,-0.232 -0.649,-0.268 -0.954,-0.089 -0.304,0.178 -0.46,0.531 -0.387,0.876 l 5.77,27.372 -10.258,-7.682 -8.943,-47.45 6.003,-11.168 4.868,22.355 c 0.038,0.178 0.135,0.338 0.274,0.455 l 2.013,1.685 c 0.202,0.171 0.475,0.232 0.732,0.166 0.256,-0.067 0.464,-0.253 0.56,-0.5 z m 18.37,47.976 h 0.004 z"
         style="fill:#009fe3;fill-opacity:1;fill-rule:nonzero;stroke:none"
         transform="matrix(1.3333333,0,0,-1.3333333,302.77507,423.40173)"
         clip-path="url(#clipPath19)"
         id="path79" />
      <path
         d="M 0,0 C -0.217,0 -0.435,0.064 -0.627,0.193 L -2.525,1.481 C -2.948,1.769 -3.133,2.31 -2.978,2.806 L 5.318,29.222 -9.37,31.596 c -0.331,0.054 -0.621,0.253 -0.795,0.546 -0.172,0.293 -0.21,0.65 -0.103,0.974 l 0.846,2.56 c 0.125,0.38 0.434,0.667 0.815,0.759 l 17.512,4.212 0.732,2.333 5.925,18.147 c 0.108,0.333 0.359,0.597 0.68,0.72 l 10.761,4.103 c 0.129,0.049 0.263,0.073 0.396,0.073 0.287,0 0.568,-0.112 0.783,-0.321 0.314,-0.307 0.43,-0.77 0.298,-1.194 L 22.039,43.806 32.24,46.26 36.77,61.689 c 0.117,0.401 0.436,0.706 0.835,0.799 0.473,0.11 9.572,2.433 10.583,2.702 0.094,0.025 0.19,0.037 0.285,0.037 0.305,0 0.603,-0.126 0.82,-0.358 0.284,-0.304 0.385,-0.741 0.265,-1.144 l -4.225,-14.127 4.274,1.429 c 0.116,0.039 0.234,0.057 0.352,0.057 0.294,0 0.581,-0.116 0.797,-0.334 0.302,-0.305 0.413,-0.757 0.287,-1.171 L 47.855,39.043 C 47.738,38.655 47.431,38.358 47.046,38.259 L 41.63,36.878 33.101,5.868 C 32.97,5.391 32.557,5.051 32.074,5.023 L 25.671,4.648 C 25.65,4.647 25.628,4.646 25.606,4.646 c -0.438,0 -0.84,0.26 -1.027,0.67 l -2.048,4.488 c -0.114,0.25 -0.137,0.534 -0.066,0.8 L 28.647,33.588 18.12,30.922 12.105,11.063 c -0.06,-0.198 -0.171,-0.376 -0.321,-0.516 L 0.763,0.302 C 0.548,0.102 0.275,0 0,0"
         style="fill:#d1eaf0;fill-opacity:1;fill-rule:nonzero;stroke:none"
         transform="matrix(1.3333333,0,0,-1.3333333,102.21267,421.1876)"
         clip-path="url(#clipPath20)"
         id="path80" />
      <path
         d="m 0,0 -7.048,-22.655 12.787,3.076 4.718,16.073 c 0.476,0.111 9.55,2.427 10.617,2.711 l -4.864,-16.266 6.35,2.123 -3.188,-10.536 -6.054,-1.544 -8.708,-31.66 -6.403,-0.374 -2.047,4.487 6.696,24.896 -13.029,-3.3 -6.205,-20.484 -11.021,-10.246 -1.898,1.288 8.701,27.708 -15.997,2.586 0.846,2.56 18.136,4.362 0.929,2.958 5.92,18.134 z m 22.56,-14.938 h 0.002 M 0,2.324 c -0.266,0 -0.534,-0.048 -0.792,-0.146 l -10.761,-4.103 c -0.643,-0.245 -1.143,-0.775 -1.361,-1.441 l -5.92,-18.134 c -0.003,-0.009 -0.005,-0.017 -0.008,-0.025 l -0.536,-1.708 -16.888,-4.062 c -0.762,-0.184 -1.379,-0.757 -1.63,-1.517 l -0.846,-2.56 c -0.215,-0.649 -0.139,-1.362 0.208,-1.948 0.346,-0.586 0.927,-0.986 1.587,-1.092 l 13.38,-2.163 -7.89,-25.125 c -0.311,-0.991 0.059,-2.073 0.907,-2.648 l 1.898,-1.288 c 0.382,-0.259 0.818,-0.387 1.253,-0.387 0.55,0 1.096,0.204 1.526,0.604 l 11.02,10.245 c 0.3,0.28 0.522,0.636 0.642,1.032 l 5.826,19.232 8.024,2.033 -5.667,-21.071 c -0.143,-0.533 -0.096,-1.1 0.132,-1.601 l 2.047,-4.487 c 0.375,-0.821 1.179,-1.34 2.056,-1.34 0.043,0 0.086,10e-4 0.13,0.004 l 6.402,0.374 c 0.967,0.057 1.792,0.736 2.055,1.69 l 8.35,30.361 4.777,1.218 c 0.77,0.197 1.384,0.791 1.619,1.567 l 3.163,10.456 c 0.083,0.24 0.127,0.499 0.127,0.768 0,1.267 -0.99,2.298 -2.222,2.323 -0.016,0 -0.032,0 -0.048,0 -0.046,0 -0.092,-10e-4 -0.138,-0.004 -0.215,-0.013 -0.422,-0.057 -0.617,-0.127 l -2.147,-0.718 3.585,11.988 c 0.241,0.805 0.038,1.68 -0.531,2.288 -0.433,0.463 -1.028,0.716 -1.638,0.716 -0.19,0 -0.382,-0.024 -0.57,-0.074 C 19.517,1.191 10.446,-1.125 9.953,-1.24 9.158,-1.427 8.519,-2.037 8.284,-2.837 L 3.943,-17.624 -3.671,-19.456 2.162,-0.705 C 2.426,0.142 2.194,1.069 1.566,1.682 1.136,2.101 0.573,2.324 0,2.324 m 0,-4.648 h 0.002 z"
         style="fill:#004563;fill-opacity:1;fill-rule:nonzero;stroke:none"
         transform="matrix(1.3333333,0,0,-1.3333333,138.74493,334.70653)"
         clip-path="url(#clipPath21)"
         id="path81" />
      <path
         d="m 0,0 -7.048,-22.655 12.787,3.076 4.718,16.073 c 0.476,0.111 9.55,2.427 10.617,2.711 l -4.864,-16.266 6.35,2.123 -3.188,-10.536 -6.054,-1.544 -8.708,-31.66 -6.403,-0.374 -2.047,4.487 6.696,24.896 -13.029,-3.3 -6.205,-20.484 -11.021,-10.246 -1.898,1.288 8.701,27.708 -15.997,2.586 0.846,2.56 18.136,4.362 0.929,2.958 5.92,18.134 z m 22.56,-14.938 h 0.002 M 0,1.69 c -0.194,0 -0.388,-0.035 -0.576,-0.106 l -10.761,-4.103 c -0.468,-0.178 -0.832,-0.563 -0.99,-1.048 l -5.92,-18.134 -0.649,-2.067 -17.228,-4.144 c -0.555,-0.133 -1.003,-0.551 -1.186,-1.103 l -0.846,-2.56 c -0.156,-0.472 -0.101,-0.991 0.151,-1.417 0.252,-0.426 0.674,-0.717 1.155,-0.794 l 14.093,-2.278 -8.111,-25.83 c -0.226,-0.72 0.043,-1.507 0.66,-1.926 l 1.898,-1.288 c 0.277,-0.188 0.595,-0.281 0.911,-0.281 0.4,0 0.797,0.148 1.11,0.439 l 11.02,10.246 c 0.219,0.203 0.38,0.462 0.467,0.75 l 5.929,19.574 9.39,2.378 -5.948,-22.115 c -0.104,-0.387 -0.07,-0.8 0.096,-1.164 l 2.047,-4.487 c 0.272,-0.597 0.857,-0.974 1.495,-0.974 0.031,0 0.063,10e-4 0.094,0.002 l 6.403,0.375 c 0.703,0.041 1.303,0.535 1.494,1.229 l 8.448,30.715 5.125,1.307 c 0.561,0.143 1.007,0.575 1.178,1.14 l 3.168,10.471 c 0.061,0.177 0.094,0.367 0.094,0.565 0,0.924 -0.723,1.675 -1.622,1.689 -0.01,0.001 -0.02,0.001 -0.029,0.001 -0.033,0 -0.067,-0.001 -0.1,-0.003 -0.156,-0.01 -0.307,-0.042 -0.449,-0.093 l -3.293,-1.101 3.934,13.155 c 0.175,0.585 0.027,1.221 -0.386,1.663 C 21.95,0.711 21.518,0.895 21.074,0.895 20.935,0.895 20.796,0.877 20.659,0.84 19.649,0.572 10.563,-1.748 10.091,-1.858 9.511,-1.993 9.048,-2.437 8.877,-3.02 L 4.433,-18.157 -4.592,-20.328 1.572,-0.513 C 1.764,0.103 1.596,0.777 1.139,1.223 0.826,1.528 0.417,1.69 0,1.69 m 0,-3.38 h 0.002 z"
         style="fill:#005478;fill-opacity:1;fill-rule:nonzero;stroke:none"
         transform="matrix(1.3333333,0,0,-1.3333333,138.74493,334.70653)"
         clip-path="url(#clipPath22)"
         id="path82" />
      <path
         d="M 0,0 C -0.16,0 -0.32,0.047 -0.46,0.142 L -2.358,1.43 c -0.3,0.203 -0.431,0.578 -0.322,0.924 l 8.417,26.804 -15.062,2.434 c -0.237,0.039 -0.445,0.179 -0.57,0.384 -0.124,0.205 -0.153,0.455 -0.077,0.683 l 0.846,2.56 c 0.089,0.27 0.311,0.474 0.586,0.54 l 17.685,4.254 0.79,2.515 5.923,18.143 c 0.077,0.235 0.256,0.423 0.487,0.511 l 10.762,4.103 c 0.293,0.113 0.625,0.047 0.853,-0.168 0.229,-0.215 0.315,-0.542 0.222,-0.841 l -6.62,-21.277 10.922,2.628 4.585,15.617 c 0.083,0.283 0.313,0.5 0.601,0.568 0.472,0.11 9.58,2.435 10.592,2.704 0.286,0.076 0.592,-0.008 0.799,-0.222 0.207,-0.213 0.282,-0.521 0.197,-0.805 l -4.411,-14.752 4.852,1.622 c 0.291,0.097 0.611,0.023 0.831,-0.19 0.22,-0.214 0.302,-0.532 0.214,-0.826 L 47.556,38.808 C 47.473,38.533 47.252,38.321 46.974,38.251 L 41.381,36.824 32.799,5.624 C 32.706,5.285 32.407,5.043 32.056,5.023 L 25.654,4.648 C 25.32,4.624 25.001,4.818 24.86,5.126 l -2.047,4.488 c -0.079,0.173 -0.096,0.369 -0.046,0.553 L 29.1,33.712 17.876,30.869 11.806,10.828 c -0.042,-0.139 -0.12,-0.264 -0.227,-0.363 L 0.559,0.219 C 0.402,0.074 0.202,0 0,0 m -0.933,2.444 0.853,-0.579 10.38,9.651 6.141,20.272 c 0.084,0.275 0.305,0.487 0.584,0.557 l 13.029,3.301 c 0.282,0.071 0.581,-0.012 0.785,-0.22 0.204,-0.207 0.283,-0.507 0.208,-0.788 l -6.62,-24.612 1.692,-3.708 5.255,0.307 8.552,31.093 c 0.078,0.285 0.302,0.505 0.588,0.578 l 5.606,1.429 2.595,8.575 -4.846,-1.62 c -0.291,-0.096 -0.611,-0.024 -0.831,0.189 -0.22,0.213 -0.303,0.531 -0.215,0.824 L 47.27,62.565 C 44.803,61.93 40.045,60.716 38.51,60.33 L 33.924,44.709 C 33.842,44.428 33.615,44.212 33.33,44.143 L 20.542,41.067 c -0.286,-0.07 -0.588,0.021 -0.79,0.237 -0.202,0.215 -0.272,0.522 -0.184,0.804 L 26.115,63.152 17.295,59.79 11.497,42.028 10.57,39.079 C 10.484,38.804 10.26,38.594 9.98,38.527 L -7.712,34.271 -8.113,33.058 6.934,30.626 c 0.235,-0.038 0.442,-0.177 0.567,-0.379 0.125,-0.203 0.156,-0.449 0.085,-0.676 z m 47.704,36.601 h 0.004 z"
         style="fill:#009fe3;fill-opacity:1;fill-rule:nonzero;stroke:none"
         transform="matrix(1.3333333,0,0,-1.3333333,102.2132,420.73187)"
         clip-path="url(#clipPath23)"
         id="path83" />
      <path
         d="m 0,0 c -0.109,0 -0.219,0.016 -0.326,0.049 l -6.127,1.879 c -0.336,0.103 -0.608,0.36 -0.734,0.696 -0.125,0.336 -0.092,0.713 0.09,1.02 l 12.7,21.39 -3.187,0.102 c -0.389,0.013 -0.745,0.229 -0.943,0.573 -0.197,0.344 -0.208,0.767 -0.029,1.122 l 2.899,5.745 c 0.129,0.256 0.347,0.454 0.61,0.555 l 4.162,1.592 2.069,0.76 20.779,33.945 c 0.193,0.316 0.523,0.518 0.886,0.543 l 11.709,0.791 c 0.025,0.002 0.05,0.003 0.075,0.003 0.392,0 0.758,-0.208 0.966,-0.552 0.22,-0.366 0.225,-0.828 0.012,-1.199 l -6.119,-10.668 4.826,0.335 c 0.026,0.002 0.051,0.003 0.077,0.003 0.296,0 0.582,-0.119 0.796,-0.334 0.231,-0.233 0.353,-0.556 0.337,-0.887 L 44.49,36.712 44.434,35.796 47.626,35.78 c 0.348,-10e-4 0.675,-0.166 0.889,-0.447 0.214,-0.28 0.29,-0.645 0.208,-0.991 l -1.037,-4.337 0.988,-4.99 c 0.068,-0.344 -0.019,-0.702 -0.238,-0.972 -0.216,-0.267 -0.536,-0.421 -0.874,-0.421 -0.005,0 -3.86,0.051 -3.86,0.051 L 43.192,9.949 C 43.174,9.463 42.863,9.041 42.412,8.889 L 34.521,6.235 C 34.406,6.196 34.286,6.177 34.167,6.177 c -0.208,0 -0.414,0.059 -0.596,0.173 l -3.75,2.367 c -0.36,0.227 -0.566,0.64 -0.536,1.071 l 1.007,14.597 -9.473,0.02 L 11.495,8.148 C 11.413,8.005 11.302,7.881 11.169,7.786 L 0.653,0.211 C 0.459,0.072 0.231,0 0,0 m 31.328,36.267 0.546,7.895 -4.447,-7.753 z"
         style="fill:#d1eaf0;fill-opacity:1;fill-rule:nonzero;stroke:none"
         transform="matrix(1.3333333,0,0,-1.3333333,523.2572,423.5104)"
         clip-path="url(#clipPath24)"
         id="path84" />
      <path
         d="m 0,0 -7.206,-12.565 6.968,0.484 -1.038,-20.75 -0.129,-2.132 4.393,-0.022 -1.097,-4.589 1.038,-5.245 -4.951,0.066 -0.553,-14.857 -7.891,-2.654 -3.75,2.367 1.093,15.839 -11.339,0.023 -9.654,-16.832 -10.517,-7.574 -6.127,1.879 13.711,23.091 -5.132,0.166 2.899,5.745 4.162,1.592 2.423,0.89 20.988,34.286 z m -12.25,-34.537 0.964,13.959 -7.862,-13.707 z m 12.012,22.456 h 0.002 M 0,2.324 c -0.049,0 -0.099,-0.002 -0.149,-0.005 L -11.858,1.527 c -0.727,-0.049 -1.387,-0.453 -1.774,-1.085 l -20.57,-33.604 -1.684,-0.619 c -0.01,-0.003 -0.019,-0.007 -0.029,-0.01 l -4.161,-1.593 c -0.528,-0.201 -0.964,-0.597 -1.222,-1.109 l -2.899,-5.746 c -0.358,-0.708 -0.335,-1.555 0.059,-2.243 0.395,-0.688 1.107,-1.121 1.885,-1.146 l 1.243,-0.04 -11.689,-19.687 c -0.365,-0.615 -0.431,-1.369 -0.179,-2.04 0.252,-0.672 0.794,-1.187 1.467,-1.393 l 6.127,-1.879 c 0.214,-0.065 0.433,-0.098 0.651,-0.098 0.462,0 0.919,0.145 1.305,0.423 l 10.517,7.575 c 0.265,0.19 0.487,0.437 0.652,0.723 l 8.994,15.683 7.607,-0.016 -0.922,-13.356 c -0.06,-0.863 0.354,-1.688 1.073,-2.142 l 3.751,-2.367 c 0.362,-0.229 0.774,-0.346 1.19,-0.346 0.238,0 0.477,0.039 0.708,0.116 l 7.891,2.654 c 0.902,0.303 1.524,1.149 1.56,2.119 l 0.468,12.593 2.739,-0.036 c 0.01,0 0.02,-10e-4 0.029,-10e-4 0.676,0 1.316,0.308 1.748,0.842 0.437,0.541 0.613,1.255 0.476,1.944 l -0.938,4.735 0.977,4.085 c 0.166,0.691 0.012,1.422 -0.415,1.983 -0.428,0.56 -1.083,0.89 -1.778,0.893 l -1.994,0.01 1.02,20.377 c 0.005,0.064 0.007,0.128 0.007,0.193 0,1.282 -1.013,2.322 -2.265,2.324 h -0.005 c -0.006,0 -0.012,0 -0.018,0 v 0 H -0.258 C -0.31,-9.758 -0.362,-9.76 -0.414,-9.764 l -2.661,-0.185 5.032,8.772 C 2.382,-0.435 2.373,0.488 1.931,1.22 1.516,1.909 0.784,2.324 0,2.324 m 0,-4.648 h 0.002 z m -15.264,-29.778 1.032,1.799 -0.127,-1.832 z"
         style="fill:#004563;fill-opacity:1;fill-rule:nonzero;stroke:none"
         transform="matrix(1.3333333,0,0,-1.3333333,582.7676,330.7064)"
         clip-path="url(#clipPath25)"
         id="path85" />
      <path
         d="m 0,0 -7.206,-12.565 6.968,0.484 -1.038,-20.75 -0.129,-2.132 4.393,-0.021 -1.097,-4.59 1.038,-5.245 -4.951,0.066 -0.553,-14.857 -7.891,-2.654 -3.75,2.367 1.093,15.839 -11.339,0.023 -9.654,-16.832 -10.517,-7.574 -6.127,1.879 13.711,23.091 -5.132,0.166 2.899,5.745 4.162,1.592 2.423,0.89 20.988,34.286 z m -12.25,-34.537 0.964,13.959 -7.862,-13.707 z m 12.012,22.456 h 0.002 M 0,1.69 c -0.036,0 -0.072,-10e-4 -0.109,-0.004 L -11.818,0.895 c -0.528,-0.036 -1.008,-0.33 -1.289,-0.789 l -20.685,-33.791 -1.885,-0.692 c -0.007,-0.003 -0.014,-0.005 -0.021,-0.008 l -4.162,-1.592 c -0.384,-0.147 -0.7,-0.435 -0.888,-0.807 l -2.899,-5.745 c -0.261,-0.516 -0.244,-1.132 0.043,-1.632 0.287,-0.501 0.804,-0.815 1.371,-0.833 l 2.304,-0.075 -12.241,-20.615 c -0.266,-0.448 -0.314,-0.996 -0.131,-1.484 0.184,-0.489 0.578,-0.863 1.068,-1.013 l 6.127,-1.879 c 0.155,-0.048 0.314,-0.071 0.473,-0.071 0.336,0 0.668,0.105 0.949,0.308 l 10.517,7.574 c 0.193,0.139 0.355,0.318 0.474,0.526 l 9.174,15.996 8.625,-0.018 -0.969,-14.033 c -0.043,-0.627 0.258,-1.227 0.781,-1.557 l 3.75,-2.368 c 0.264,-0.166 0.564,-0.251 0.866,-0.251 0.173,0 0.347,0.028 0.515,0.084 l 7.891,2.654 c 0.656,0.221 1.108,0.836 1.134,1.542 l 0.492,13.209 3.342,-0.044 c 0.007,0 0.014,0 0.021,0 0.491,0 0.957,0.224 1.271,0.612 0.318,0.394 0.446,0.913 0.347,1.414 l -0.966,4.874 1.01,4.223 c 0.12,0.502 0.009,1.034 -0.302,1.442 -0.311,0.407 -0.788,0.647 -1.293,0.649 l -2.646,0.013 0.021,0.346 1.036,20.706 c 0.004,0.049 0.006,0.099 0.006,0.149 0,0.931 -0.734,1.687 -1.643,1.69 h -0.008 c -0.011,0 -0.022,0 -0.033,0 -0.031,-10e-4 -0.063,-0.003 -0.094,-0.005 l -3.837,-0.266 5.625,9.806 C 1.733,-0.316 1.725,0.355 1.404,0.887 1.103,1.388 0.57,1.69 0,1.69 m 0,-3.38 h 0.002 z m -16.323,-31.007 2.894,5.046 -0.355,-5.139 z"
         style="fill:#005478;fill-opacity:1;fill-rule:nonzero;stroke:none"
         transform="matrix(1.3333333,0,0,-1.3333333,582.7676,330.7064)"
         clip-path="url(#clipPath26)"
         id="path86" />
      <path
         d="M 0,0 C -0.08,0 -0.162,0.012 -0.24,0.036 L -6.367,1.915 C -6.608,1.988 -6.801,2.169 -6.891,2.403 -6.982,2.638 -6.96,2.901 -6.832,3.117 L 6.17,25.015 2.426,25.136 c -0.28,0.009 -0.536,0.16 -0.679,0.401 -0.143,0.241 -0.153,0.538 -0.027,0.788 l 2.899,5.745 c 0.092,0.182 0.248,0.324 0.439,0.397 l 4.161,1.592 2.167,0.795 20.839,34.043 c 0.139,0.227 0.378,0.373 0.644,0.391 l 11.709,0.791 c 0.299,0.022 0.59,-0.127 0.751,-0.383 0.16,-0.257 0.166,-0.581 0.016,-0.843 l -6.443,-11.232 5.437,0.377 c 0.237,0.017 0.463,-0.068 0.63,-0.233 0.168,-0.164 0.257,-0.392 0.245,-0.626 l -1.038,-20.75 -0.077,-1.275 3.526,-0.018 c 0.251,-10e-4 0.487,-0.116 0.641,-0.313 0.155,-0.197 0.211,-0.454 0.153,-0.697 l -1.056,-4.415 1.004,-5.07 c 0.048,-0.242 -0.016,-0.494 -0.174,-0.684 -0.159,-0.19 -0.405,-0.295 -0.641,-0.295 L 43.401,23.677 42.878,9.62 C 42.865,9.28 42.643,8.982 42.32,8.874 L 34.429,6.22 C 34.196,6.142 33.939,6.172 33.73,6.304 l -3.751,2.367 c -0.255,0.161 -0.401,0.449 -0.38,0.75 l 1.033,14.964 -9.987,0.02 L 11.229,7.986 C 11.17,7.885 11.091,7.797 10.996,7.729 L 0.479,0.155 C 0.338,0.053 0.17,0 0,0 m -4.889,3.177 4.74,-1.454 10.043,7.233 9.565,16.678 c 0.147,0.255 0.418,0.412 0.712,0.412 h 0.002 l 11.339,-0.023 c 0.227,-0.001 0.444,-0.095 0.599,-0.261 0.154,-0.166 0.233,-0.389 0.217,-0.616 l -1.06,-15.35 3.007,-1.898 6.985,2.349 0.532,14.291 c 0.016,0.441 0.379,0.789 0.819,0.789 h 0.011 l 3.939,-0.052 -0.842,4.253 c -0.022,0.116 -0.02,0.235 0.007,0.35 l 0.857,3.583 -3.359,0.017 c -0.225,10e-4 -0.44,0.095 -0.594,0.259 -0.154,0.165 -0.234,0.385 -0.22,0.61 l 0.129,2.132 0.991,19.819 -6.047,-0.42 c -0.306,-0.022 -0.591,0.127 -0.752,0.383 -0.16,0.257 -0.166,0.581 -0.016,0.843 L 43.159,68.339 33.402,67.68 12.636,33.755 C 12.539,33.597 12.393,33.477 12.219,33.413 L 9.795,32.523 5.94,31.048 3.763,26.734 7.61,26.61 C 7.9,26.601 8.164,26.439 8.303,26.185 8.442,25.93 8.437,25.621 8.289,25.372 Z m 37.273,30.727 c -0.01,0 -0.02,0 -0.031,0 l -6.898,0.253 c -0.287,0.01 -0.547,0.17 -0.687,0.421 -0.139,0.251 -0.137,0.557 0.006,0.806 l 7.862,13.707 c 0.19,0.331 0.584,0.488 0.95,0.377 0.365,-0.111 0.606,-0.46 0.579,-0.841 l -0.964,-13.96 c -0.029,-0.431 -0.389,-0.763 -0.817,-0.763 m -5.512,1.842 4.748,-0.174 0.664,9.608 z"
         style="fill:#009fe3;fill-opacity:1;fill-rule:nonzero;stroke:none"
         transform="matrix(1.3333333,0,0,-1.3333333,523.25667,423.0544)"
         clip-path="url(#clipPath27)"
         id="path87" />
      <path
         d="M 0,0 C -0.217,0 -0.436,0.064 -0.627,0.194 L -2.69,1.595 c -0.418,0.284 -0.604,0.816 -0.458,1.307 l 7.846,26.31 -2.875,6.304 c -0.144,0.316 -0.142,0.681 0.005,0.994 0.147,0.314 0.423,0.544 0.754,0.627 l 4.846,1.212 0.689,2.252 10.686,35.918 c 0.109,0.364 0.385,0.651 0.739,0.767 0.114,0.038 0.231,0.056 0.347,0.056 0.246,0 0.49,-0.082 0.691,-0.24 l 8.269,-6.499 c 0.37,-0.291 0.528,-0.785 0.399,-1.244 l -1.013,-3.591 3.392,-0.441 c 0.465,-0.06 0.846,-0.407 0.959,-0.873 l 4.505,-18.662 4.796,1.285 c 0.095,0.026 0.191,0.038 0.287,0.038 0.284,0 0.562,-0.109 0.775,-0.313 0.284,-0.271 0.413,-0.674 0.34,-1.065 L 41.506,36.113 C 41.422,35.662 41.087,35.304 40.651,35.199 L 39.418,34.902 43.9,13.959 c 0.123,-0.575 -0.193,-1.153 -0.736,-1.346 L 33.555,9.196 C 33.433,9.153 33.308,9.131 33.182,9.131 32.985,9.131 32.79,9.184 32.615,9.287 32.33,9.455 32.13,9.742 32.068,10.073 L 27.943,32.009 18.006,29.494 13.065,11.973 C 13.007,11.766 12.894,11.58 12.738,11.435 L 0.763,0.302 C 0.548,0.102 0.275,0 0,0 m 21.496,41.87 3.472,0.869 -1.244,7.03 z"
         style="fill:#d1eaf0;fill-opacity:1;fill-rule:nonzero;stroke:none"
         transform="matrix(1.3333333,0,0,-1.3333333,158.86733,424.04227)"
         clip-path="url(#clipPath28)"
         id="path88" />
      <path
         d="m 0,0 8.269,-6.499 -1.38,-4.895 4.707,-0.611 4.78,-19.805 5.91,1.583 -1.784,-9.623 -2.32,-0.56 4.721,-22.06 -9.61,-3.417 -4.351,23.138 -11.733,-2.971 -5.122,-18.164 -11.975,-11.134 -2.063,1.401 7.973,26.736 -3.06,6.709 5.468,1.368 0.881,2.877 z m -0.026,-35.915 6.413,1.604 -2.299,12.985 z m 22.312,5.688 h 0.002 M 0,2.324 C -0.232,2.324 -0.466,2.287 -0.693,2.213 -1.401,1.98 -1.954,1.406 -2.171,0.677 l -10.688,-35.927 -0.493,-1.608 -4.224,-1.057 c -0.661,-0.165 -1.214,-0.625 -1.508,-1.252 -0.294,-0.628 -0.297,-1.358 -0.01,-1.988 l 2.691,-5.9 -7.718,-25.884 c -0.294,-0.983 0.079,-2.046 0.916,-2.615 l 2.062,-1.401 c 0.383,-0.259 0.819,-0.387 1.254,-0.387 0.55,0 1.097,0.204 1.526,0.603 l 11.975,11.134 c 0.312,0.29 0.538,0.662 0.655,1.076 l 4.759,16.876 8.14,2.061 3.899,-20.734 c 0.125,-0.663 0.524,-1.237 1.095,-1.574 0.348,-0.206 0.74,-0.311 1.133,-0.311 0.251,0 0.503,0.043 0.745,0.129 l 9.609,3.417 c 1.086,0.387 1.719,1.543 1.473,2.693 l -4.243,19.825 0.145,0.035 c 0.873,0.21 1.542,0.927 1.71,1.828 l 1.768,9.542 c 0.036,0.166 0.056,0.338 0.056,0.515 0,1.271 -0.996,2.304 -2.232,2.323 -0.013,0.001 -0.026,0.001 -0.038,0.001 -0.035,0 -0.07,-0.001 -0.105,-0.003 -0.18,-0.008 -0.354,-0.038 -0.52,-0.086 l -3.634,-0.974 -4.228,17.518 c -0.225,0.933 -0.987,1.627 -1.918,1.748 l -2.077,0.27 0.645,2.287 c 0.259,0.918 -0.058,1.905 -0.799,2.487 L 1.382,1.843 C 0.98,2.159 0.493,2.324 0,2.324 m 3.241,-35.03 0.341,1.21 0.191,-1.077 z"
         style="fill:#004563;fill-opacity:1;fill-rule:nonzero;stroke:none"
         transform="matrix(1.3333333,0,0,-1.3333333,185.38573,322.4688)"
         clip-path="url(#clipPath29)"
         id="path89" />
      <path
         d="m 0,0 8.269,-6.499 -1.38,-4.895 4.707,-0.611 4.78,-19.805 5.91,1.583 -1.784,-9.623 -2.32,-0.56 4.721,-22.06 -9.61,-3.417 -4.351,23.138 -11.733,-2.971 -5.122,-18.164 -11.975,-11.134 -2.063,1.401 7.973,26.736 -3.06,6.709 5.468,1.368 0.881,2.877 z m -0.026,-35.915 6.413,1.604 -2.299,12.985 z m 22.312,5.688 h 0.002 M 0,1.69 C -0.169,1.69 -0.339,1.663 -0.504,1.609 -1.019,1.44 -1.421,1.023 -1.579,0.493 l -10.688,-35.928 -0.599,-1.954 -4.563,-1.142 c -0.481,-0.12 -0.883,-0.454 -1.097,-0.91 -0.214,-0.457 -0.216,-0.987 -0.007,-1.446 l 2.791,-6.121 -7.788,-26.116 c -0.213,-0.715 0.058,-1.488 0.667,-1.901 l 2.063,-1.402 c 0.278,-0.188 0.595,-0.281 0.911,-0.281 0.4,0 0.798,0.148 1.11,0.439 l 11.975,11.133 c 0.227,0.211 0.392,0.482 0.476,0.783 l 4.858,17.227 9.12,2.309 4.023,-21.389 c 0.09,-0.482 0.381,-0.9 0.796,-1.145 0.253,-0.15 0.538,-0.226 0.824,-0.226 0.183,0 0.366,0.031 0.542,0.094 l 9.609,3.417 c 0.79,0.281 1.25,1.122 1.071,1.958 l -4.373,20.435 0.738,0.178 c 0.635,0.153 1.122,0.674 1.243,1.329 l 1.772,9.558 c 0.027,0.122 0.042,0.25 0.042,0.381 0,0.927 -0.728,1.68 -1.631,1.69 -0.007,0 -0.013,0 -0.02,0 -0.025,0 -0.049,0 -0.074,-0.002 -0.131,-0.005 -0.259,-0.027 -0.38,-0.063 l -4.255,-1.14 -4.379,18.142 c -0.164,0.678 -0.718,1.183 -1.395,1.271 l -2.794,0.363 0.845,2.998 c 0.189,0.668 -0.042,1.386 -0.58,1.81 L 1.005,1.341 C 0.713,1.57 0.359,1.69 0,1.69 m 2.35,-35.271 1.37,4.859 0.766,-4.325 z"
         style="fill:#005478;fill-opacity:1;fill-rule:nonzero;stroke:none"
         transform="matrix(1.3333333,0,0,-1.3333333,185.38573,322.4688)"
         clip-path="url(#clipPath30)"
         id="path90" />
      <path
         d="m 0,0 c -0.16,0 -0.321,0.047 -0.46,0.142 l -2.063,1.401 c -0.296,0.201 -0.428,0.57 -0.326,0.913 l 7.885,26.441 -2.932,6.429 c -0.101,0.221 -0.098,0.477 0.008,0.696 0.106,0.219 0.303,0.381 0.54,0.44 l 5.018,1.255 0.746,2.434 10.686,35.921 c 0.078,0.26 0.279,0.465 0.538,0.548 0.259,0.082 0.542,0.031 0.755,-0.137 l 8.269,-6.499 c 0.261,-0.205 0.373,-0.547 0.282,-0.867 l -1.122,-3.981 3.766,-0.49 c 0.337,-0.044 0.612,-0.29 0.691,-0.621 l 4.583,-18.987 5.098,1.365 c 0.271,0.074 0.562,0.002 0.769,-0.189 0.207,-0.192 0.301,-0.475 0.249,-0.752 l -1.783,-9.624 c -0.059,-0.318 -0.3,-0.572 -0.614,-0.647 L 39.04,34.819 43.593,13.54 c 0.086,-0.402 -0.139,-0.806 -0.527,-0.944 L 33.456,9.179 C 33.231,9.098 32.981,9.121 32.773,9.24 32.565,9.36 32.42,9.564 32.376,9.8 L 28.186,32.08 17.758,29.44 12.764,11.731 c -0.04,-0.144 -0.12,-0.275 -0.23,-0.378 L 0.559,0.219 C 0.402,0.074 0.202,0 0,0 m -1.105,2.562 1.025,-0.697 11.329,10.533 5.059,17.943 c 0.08,0.282 0.304,0.501 0.588,0.573 l 11.733,2.97 c 0.22,0.056 0.453,0.018 0.643,-0.104 0.191,-0.122 0.322,-0.317 0.364,-0.539 l 4.174,-22.196 8.029,2.855 -4.57,21.357 c -0.093,0.435 0.178,0.864 0.61,0.969 l 1.802,0.434 1.45,7.823 -4.654,-1.247 c -0.213,-0.058 -0.441,-0.026 -0.631,0.087 -0.19,0.113 -0.327,0.298 -0.379,0.512 l -4.648,19.258 -4.147,0.538 c -0.237,0.031 -0.448,0.163 -0.579,0.362 -0.131,0.199 -0.169,0.445 -0.105,0.674 L 27.219,69.034 20.33,74.448 9.986,39.677 9.102,36.794 C 9.018,36.519 8.796,36.309 8.517,36.239 L 4.006,35.11 6.656,29.298 c 0.082,-0.181 0.096,-0.385 0.04,-0.575 z m 41.496,33.426 h 0.004 z m -20.528,3.116 c -0.219,0 -0.432,0.087 -0.589,0.248 -0.203,0.21 -0.28,0.513 -0.201,0.794 l 4.114,14.589 c 0.104,0.368 0.451,0.61 0.83,0.596 0.382,-0.019 0.7,-0.299 0.766,-0.676 l 2.299,-12.984 c 0.075,-0.424 -0.19,-0.834 -0.608,-0.939 l -6.412,-1.604 c -0.066,-0.016 -0.133,-0.024 -0.199,-0.024 m 3.93,11.738 -2.757,-9.78 4.298,1.076 z"
         style="fill:#009fe3;fill-opacity:1;fill-rule:nonzero;stroke:none"
         transform="matrix(1.3333333,0,0,-1.3333333,158.86787,423.5864)"
         clip-path="url(#clipPath31)"
         id="path91" />
      <path
         d="M 0,0 C -0.25,0 -0.496,0.085 -0.696,0.244 L -14.69,11.377 c -0.209,0.166 -0.354,0.402 -0.411,0.667 l -3.857,17.912 c -0.034,0.159 -0.036,0.325 -0.003,0.485 l 6.128,30.3 c 0.086,0.425 0.396,0.765 0.805,0.883 l 9.105,2.617 c 0.074,0.022 0.15,0.035 0.227,0.041 l 17.913,1.293 c 0.026,0.002 0.053,0.003 0.079,0.003 0.339,0 0.661,-0.155 0.878,-0.425 l 4.503,-5.62 c 0.215,-0.267 0.301,-0.618 0.237,-0.958 L 19.176,49.396 C 19.102,49.003 18.835,48.677 18.47,48.533 l -4.161,-1.639 c -0.134,-0.053 -0.272,-0.078 -0.407,-0.078 -0.429,0 -0.836,0.25 -1.028,0.67 L 10.871,51.865 -1.777,49.374 -5.677,28.74 0.41,15.382 8.868,18.458 c 0.124,0.045 0.253,0.067 0.379,0.067 0.404,0 0.791,-0.222 0.995,-0.603 L 17.25,4.845 C 17.425,4.518 17.437,4.126 17.281,3.789 17.126,3.452 16.822,3.213 16.465,3.144 L 0.209,0.02 C 0.14,0.007 0.07,0 0,0"
         style="fill:#d1eaf0;fill-opacity:1;fill-rule:nonzero;stroke:none"
         transform="matrix(1.3333333,0,0,-1.3333333,242.6384,421.21787)"
         clip-path="url(#clipPath32)"
         id="path92" />
      <path
         d="m 0,0 4.504,-5.62 -1.738,-9.178 -4.161,-1.639 -2.378,5.198 -14.269,-2.81 -4.116,-21.776 6.679,-14.657 9.43,3.429 7.008,-13.077 -16.256,-3.124 -13.993,11.133 -3.856,17.911 6.128,30.299 9.105,2.618 z m 0,2.324 c -0.053,0 -0.106,-0.002 -0.16,-0.006 L -18.072,1.025 c -0.154,-0.011 -0.306,-0.038 -0.454,-0.081 l -9.105,-2.618 c -0.817,-0.234 -1.437,-0.915 -1.609,-1.766 l -6.128,-30.299 c -0.065,-0.32 -0.063,-0.652 0.006,-0.971 l 3.856,-17.911 c 0.114,-0.53 0.406,-1.002 0.824,-1.335 l 13.993,-11.133 c 0.402,-0.319 0.892,-0.489 1.392,-0.489 0.14,0 0.28,0.013 0.419,0.04 l 16.256,3.124 c 0.715,0.137 1.322,0.617 1.633,1.291 0.311,0.673 0.288,1.458 -0.062,2.111 l -7.009,13.077 c -0.408,0.761 -1.181,1.206 -1.99,1.206 -0.252,0 -0.509,-0.043 -0.759,-0.134 l -7.485,-2.723 -5.496,12.06 3.684,19.492 11.027,2.171 1.629,-3.56 c 0.384,-0.839 1.199,-1.339 2.056,-1.339 0.271,0 0.547,0.051 0.814,0.156 l 4.161,1.639 c 0.73,0.288 1.264,0.94 1.413,1.726 l 1.737,9.179 C 6.86,-5.383 6.686,-4.68 6.258,-4.146 L 1.754,1.474 C 1.321,2.014 0.677,2.324 0,2.324"
         style="fill:#004563;fill-opacity:1;fill-rule:nonzero;stroke:none"
         transform="matrix(1.3333333,0,0,-1.3333333,263.0336,335.33)"
         clip-path="url(#clipPath33)"
         id="path93" />
      <path
         d="m 0,0 4.504,-5.62 -1.738,-9.178 -4.161,-1.639 -2.378,5.198 -14.269,-2.81 -4.116,-21.776 6.679,-14.657 9.43,3.429 7.008,-13.077 -16.256,-3.124 -13.993,11.133 -3.856,17.911 6.128,30.299 9.105,2.618 z m 0,1.69 c -0.039,0 -0.077,-10e-4 -0.116,-0.004 L -18.029,0.393 c -0.112,-0.009 -0.222,-0.028 -0.33,-0.059 l -9.105,-2.618 c -0.594,-0.17 -1.045,-0.666 -1.17,-1.284 l -6.128,-30.299 c -0.048,-0.233 -0.046,-0.474 0.004,-0.707 l 3.856,-17.911 c 0.083,-0.385 0.295,-0.729 0.6,-0.971 l 13.993,-11.132 c 0.292,-0.233 0.649,-0.356 1.012,-0.356 0.102,0 0.204,0.01 0.305,0.029 l 16.256,3.124 c 0.52,0.1 0.961,0.449 1.187,0.938 0.226,0.49 0.21,1.061 -0.045,1.536 l -7.008,13.077 c -0.297,0.554 -0.859,0.877 -1.447,0.877 -0.184,0 -0.371,-0.031 -0.552,-0.097 l -8.016,-2.916 -5.819,12.768 3.802,20.115 11.911,2.346 1.834,-4.007 c 0.279,-0.61 0.872,-0.974 1.495,-0.974 0.197,0 0.397,0.037 0.592,0.113 l 4.16,1.639 c 0.531,0.21 0.92,0.684 1.028,1.256 l 1.738,9.179 c 0.093,0.494 -0.033,1.005 -0.345,1.393 L 1.276,1.072 C 0.961,1.465 0.492,1.69 0,1.69"
         style="fill:#005478;fill-opacity:1;fill-rule:nonzero;stroke:none"
         transform="matrix(1.3333333,0,0,-1.3333333,263.0336,335.33)"
         clip-path="url(#clipPath34)"
         id="path94" />
      <path
         d="m 0,0 c -0.184,0 -0.364,0.062 -0.51,0.178 l -13.994,11.133 c -0.148,0.118 -0.251,0.284 -0.291,0.469 l -3.856,17.911 c -0.024,0.111 -0.025,0.225 -0.003,0.336 l 6.129,30.299 c 0.06,0.3 0.283,0.541 0.577,0.625 l 9.105,2.618 c 0.055,0.016 0.111,0.026 0.168,0.03 l 17.912,1.293 c 0.272,0.021 0.531,-0.095 0.699,-0.305 l 4.504,-5.62 c 0.15,-0.187 0.211,-0.43 0.166,-0.665 l -1.738,-9.179 c -0.052,-0.277 -0.243,-0.507 -0.505,-0.61 l -4.161,-1.639 c -0.406,-0.16 -0.865,0.025 -1.046,0.422 L 11.047,51.905 -2.042,49.328 -6.007,28.352 0.25,14.621 8.967,17.792 c 0.383,0.14 0.81,-0.024 1.003,-0.383 L 16.979,4.331 C 17.102,4.101 17.108,3.827 16.996,3.591 16.884,3.356 16.667,3.188 16.411,3.139 L 0.155,0.015 C 0.103,0.005 0.051,0 0,0 M -13.254,12.412 0.215,1.696 15.007,4.539 8.86,16.008 0.098,12.821 c -0.402,-0.146 -0.849,0.042 -1.026,0.431 l -6.679,14.657 c -0.07,0.154 -0.091,0.326 -0.06,0.492 l 4.116,21.776 c 0.062,0.33 0.319,0.588 0.648,0.653 l 14.268,2.809 c 0.372,0.073 0.747,-0.118 0.904,-0.463 l 2.055,-4.491 3.017,1.188 1.583,8.363 -3.998,4.989 -17.398,-1.256 -8.545,-2.456 -5.995,-29.644 z"
         style="fill:#009fe3;fill-opacity:1;fill-rule:nonzero;stroke:none"
         transform="matrix(1.3333333,0,0,-1.3333333,242.63813,420.76213)"
         clip-path="url(#clipPath35)"
         id="path95" />
      <path
         d="m 0,0 c -0.327,0 -0.64,0.145 -0.856,0.399 l -12.805,15.067 c -0.131,0.153 -0.219,0.339 -0.257,0.539 l -2.333,12.176 c -0.027,0.14 -0.028,0.285 -0.004,0.427 l 4.62,26.599 c 0.055,0.322 0.241,0.605 0.511,0.78 l 8.778,5.673 c 0.139,0.09 0.295,0.148 0.458,0.17 l 15.251,2.053 c 0.049,0.006 0.099,0.01 0.148,0.01 0.133,0 0.266,-0.024 0.391,-0.072 l 12.775,-4.812 c 0.568,-0.214 0.872,-0.847 0.691,-1.438 L 23.766,45.84 c -0.149,-0.487 -0.589,-0.814 -1.082,-0.814 -0.022,0 -0.044,10e-4 -0.067,0.002 l -8.78,0.527 c -0.32,0.019 -0.617,0.176 -0.817,0.431 -0.201,0.256 -0.287,0.586 -0.238,0.91 l 0.534,3.457 -11.332,-3.829 -3.576,-17.64 1.378,-9.614 7.605,-7.532 5.807,2.439 c 0.141,0.059 0.287,0.087 0.43,0.087 0.444,0 0.866,-0.268 1.048,-0.714 L 19.135,2.627 C 19.277,2.279 19.245,1.882 19.049,1.562 18.853,1.242 18.518,1.04 18.15,1.019 L 0.062,0.002 C 0.042,0.001 0.021,0 0,0"
         style="fill:#d1eaf0;fill-opacity:1;fill-rule:nonzero;stroke:none"
         transform="matrix(1.3333333,0,0,-1.3333333,613.01533,421.78107)"
         clip-path="url(#clipPath36)"
         id="path96" />
      <path
         d="m 0,0 12.775,-4.812 -3.602,-11.731 -8.781,0.527 0.824,5.339 -13.72,-4.637 -3.75,-18.498 1.463,-10.209 8.415,-8.335 6.494,2.727 4.459,-10.923 -18.087,-1.017 -12.806,15.066 -2.332,12.176 4.619,26.6 8.778,5.674 z m 0,2.324 c -0.099,0 -0.197,-0.007 -0.296,-0.02 L -15.547,0.251 c -0.325,-0.044 -0.637,-0.159 -0.915,-0.339 l -8.778,-5.674 c -0.54,-0.349 -0.911,-0.915 -1.023,-1.558 l -4.619,-26.6 c -0.049,-0.283 -0.047,-0.572 0.007,-0.854 l 2.333,-12.176 c 0.076,-0.399 0.254,-0.771 0.515,-1.078 l 12.805,-15.067 c 0.432,-0.508 1.057,-0.798 1.711,-0.798 0.042,0 0.083,10e-4 0.125,0.004 l 18.087,1.017 c 0.736,0.042 1.407,0.446 1.799,1.086 0.391,0.64 0.455,1.434 0.171,2.13 l -4.459,10.924 c -0.364,0.89 -1.207,1.428 -2.095,1.428 -0.287,0 -0.578,-0.056 -0.86,-0.175 l -5.122,-2.151 -6.793,6.73 -1.293,9.019 3.402,16.781 8.943,3.022 -0.243,-1.576 c -0.1,-0.647 0.072,-1.308 0.474,-1.819 0.402,-0.511 0.995,-0.824 1.635,-0.863 l 8.78,-0.526 c 0.045,-0.003 0.09,-0.005 0.134,-0.005 0.985,0 1.865,0.655 2.164,1.627 l 3.601,11.731 c 0.364,1.183 -0.244,2.45 -1.381,2.878 L 0.783,2.181 C 0.532,2.276 0.267,2.324 0,2.324"
         style="fill:#004563;fill-opacity:1;fill-rule:nonzero;stroke:none"
         transform="matrix(1.3333333,0,0,-1.3333333,631.02947,338.13987)"
         clip-path="url(#clipPath37)"
         id="path97" />
      <path
         d="m 0,0 12.775,-4.812 -3.602,-11.731 -8.781,0.527 0.824,5.339 -13.72,-4.637 -3.75,-18.498 1.463,-10.209 8.415,-8.335 6.494,2.727 4.459,-10.923 -18.087,-1.017 -12.806,15.066 -2.332,12.176 4.619,26.6 8.778,5.674 z m 0,1.69 c -0.072,0 -0.144,-0.005 -0.215,-0.014 l -15.251,-2.053 c -0.237,-0.032 -0.464,-0.116 -0.666,-0.247 l -8.778,-5.674 c -0.392,-0.254 -0.663,-0.665 -0.744,-1.133 l -4.619,-26.6 c -0.035,-0.205 -0.034,-0.416 0.005,-0.621 l 2.333,-12.176 c 0.055,-0.29 0.185,-0.561 0.374,-0.784 l 12.806,-15.067 c 0.314,-0.369 0.769,-0.58 1.244,-0.58 0.031,0 0.061,10e-4 0.091,0.003 l 18.087,1.017 c 0.536,0.03 1.023,0.325 1.308,0.79 0.285,0.465 0.331,1.043 0.125,1.549 l -4.459,10.923 c -0.265,0.648 -0.878,1.039 -1.524,1.039 -0.208,0 -0.42,-0.041 -0.625,-0.127 l -5.496,-2.309 -7.236,7.168 -1.339,9.344 3.497,17.25 10.246,3.462 -0.402,-2.602 c -0.072,-0.472 0.053,-0.952 0.345,-1.324 0.292,-0.371 0.724,-0.599 1.189,-0.627 l 8.781,-0.527 c 0.032,-0.002 0.065,-0.003 0.097,-0.003 0.716,0 1.356,0.476 1.573,1.183 l 3.602,11.731 c 0.264,0.861 -0.178,1.782 -1.005,2.093 L 0.57,1.586 C 0.387,1.655 0.194,1.69 0,1.69"
         style="fill:#005478;fill-opacity:1;fill-rule:nonzero;stroke:none"
         transform="matrix(1.3333333,0,0,-1.3333333,631.02947,338.13987)"
         clip-path="url(#clipPath38)"
         id="path98" />
      <path
         d="M 0,0 C -0.24,0 -0.468,0.105 -0.625,0.289 L -13.43,15.355 c -0.092,0.108 -0.154,0.238 -0.18,0.377 l -2.332,12.176 c -0.019,0.097 -0.02,0.197 -0.003,0.295 l 4.619,26.599 c 0.039,0.226 0.17,0.425 0.362,0.549 l 8.779,5.674 c 0.101,0.066 0.216,0.108 0.336,0.124 l 15.25,2.053 c 0.135,0.018 0.272,0.002 0.399,-0.046 l 12.774,-4.811 c 0.405,-0.153 0.622,-0.594 0.495,-1.008 L 23.468,45.606 c -0.111,-0.362 -0.451,-0.605 -0.834,-0.578 l -8.78,0.526 c -0.23,0.014 -0.444,0.125 -0.589,0.304 -0.145,0.18 -0.208,0.412 -0.172,0.64 L 13.71,50.503 1.716,46.45 -1.912,28.553 l 1.404,-9.796 7.83,-7.756 5.989,2.516 c 0.202,0.084 0.43,0.085 0.632,0.001 0.202,-0.083 0.362,-0.245 0.445,-0.447 L 18.847,2.147 C 18.947,1.902 18.922,1.623 18.781,1.399 18.639,1.175 18.398,1.034 18.134,1.019 L 0.046,0.001 C 0.031,0 0.015,0 0,0 M -12.04,16.253 0.361,1.662 16.894,2.592 13.183,11.684 7.452,9.277 C 7.147,9.148 6.793,9.217 6.558,9.45 l -8.415,8.336 c -0.127,0.126 -0.21,0.289 -0.235,0.466 l -1.463,10.209 c -0.014,0.093 -0.011,0.188 0.008,0.279 l 3.75,18.498 c 0.058,0.287 0.264,0.521 0.541,0.614 l 13.72,4.637 c 0.271,0.092 0.57,0.035 0.79,-0.149 0.219,-0.185 0.326,-0.47 0.283,-0.753 l -0.686,-4.449 7.238,-0.434 3.186,10.377 -11.86,4.468 -14.864,-2.001 -8.323,-5.38 -4.532,-26.098 z"
         style="fill:#009fe3;fill-opacity:1;fill-rule:nonzero;stroke:none"
         transform="matrix(1.3333333,0,0,-1.3333333,613.0152,421.32533)"
         clip-path="url(#clipPath39)"
         id="path99" />
      <path
         d="m 0,0 c -0.066,0 -0.131,0.006 -0.196,0.018 l -20.055,3.605 c -0.571,0.103 -0.974,0.63 -0.935,1.223 l 1.097,16.671 c 0.026,0.383 0.233,0.728 0.555,0.923 0.178,0.107 0.377,0.161 0.578,0.161 0.163,0 0.326,-0.036 0.479,-0.109 L -0.143,13.745 6.337,21.99 -4.16,19.643 c -0.08,-0.018 -0.161,-0.027 -0.242,-0.027 -0.16,0 -0.321,0.035 -0.469,0.104 l -6.254,2.909 c -0.168,0.079 -0.316,0.198 -0.429,0.348 l -9.364,12.417 c -0.324,0.429 -0.314,1.03 0.022,1.449 l 18.808,23.362 c 0.174,0.216 0.419,0.36 0.689,0.407 l 14.329,2.45 1.478,4.293 c 0.126,0.365 0.421,0.642 0.786,0.738 l 11.085,2.933 c 0.094,0.025 0.189,0.037 0.284,0.037 0.289,0 0.571,-0.113 0.785,-0.323 0.283,-0.278 0.406,-0.687 0.325,-1.081 l -4.52,-21.722 c -0.095,-0.459 -0.452,-0.815 -0.904,-0.9 L 10.359,44.789 C 10.29,44.776 10.221,44.77 10.153,44.77 9.896,44.77 9.645,44.859 9.442,45.026 9.184,45.239 9.03,45.555 9.019,45.893 L 8.88,50.203 7.353,50.758 -3.695,35.864 23.871,38.063 c 0.03,0.002 0.059,0.003 0.088,0.003 0.351,0 0.684,-0.166 0.9,-0.454 0.234,-0.312 0.298,-0.723 0.17,-1.094 L 14.15,4.897 C 14.03,4.549 13.757,4.281 13.413,4.172 L 0.334,0.051 C 0.225,0.017 0.113,0 0,0"
         style="fill:#d1eaf0;fill-opacity:1;fill-rule:nonzero;stroke:none"
         transform="matrix(1.3333333,0,0,-1.3333333,448.59187,426.29387)"
         clip-path="url(#clipPath40)"
         id="path100" />
      <path
         d="m 0,0 -4.52,-21.722 -11.89,-2.248 -0.164,5.102 -3.038,1.103 -13.079,-17.631 30.087,2.399 -10.879,-31.622 -13.08,-4.121 -20.054,3.606 1.097,16.672 19.14,-9.132 9.055,11.52 -13.64,-3.05 -6.254,2.91 -9.364,12.416 18.808,23.362 14.989,2.564 1.701,4.939 z m 0,2.324 c -0.189,0 -0.38,-0.025 -0.568,-0.074 l -11.084,-2.933 c -0.732,-0.194 -1.321,-0.747 -1.573,-1.477 l -1.255,-3.646 -13.669,-2.338 c -0.54,-0.092 -1.029,-0.381 -1.377,-0.814 L -48.334,-32.32 c -0.674,-0.837 -0.693,-2.039 -0.045,-2.898 l 9.364,-12.417 c 0.226,-0.299 0.521,-0.538 0.858,-0.695 l 6.253,-2.909 c 0.297,-0.138 0.617,-0.208 0.939,-0.208 0.162,0 0.324,0.017 0.484,0.053 l 7.354,1.645 -3.906,-4.97 -17.528,8.363 c -0.305,0.145 -0.632,0.217 -0.959,0.217 -0.4,0 -0.799,-0.108 -1.154,-0.323 -0.644,-0.39 -1.059,-1.079 -1.11,-1.844 l -1.097,-16.671 c -0.078,-1.186 0.729,-2.24 1.871,-2.445 l 20.055,-3.606 c 0.13,-0.024 0.261,-0.035 0.392,-0.035 0.225,0 0.45,0.034 0.667,0.102 l 13.08,4.121 c 0.688,0.217 1.234,0.755 1.473,1.449 l 10.879,31.622 c 0.255,0.741 0.127,1.564 -0.34,2.187 -0.431,0.575 -1.098,0.908 -1.8,0.908 -0.058,0 -0.117,-0.002 -0.176,-0.007 l -25.045,-1.997 9.017,12.156 0.017,-0.006 0.113,-3.518 c 0.022,-0.677 0.33,-1.31 0.845,-1.734 0.406,-0.335 0.909,-0.513 1.423,-0.513 0.137,0 0.275,0.012 0.412,0.038 l 11.89,2.248 c 0.903,0.171 1.616,0.881 1.808,1.801 L 2.219,-0.484 C 2.383,0.303 2.137,1.121 1.57,1.678 1.142,2.097 0.578,2.324 0,2.324 m 0,-4.648 h 0.002 z"
         style="fill:#004563;fill-opacity:1;fill-rule:nonzero;stroke:none"
         transform="matrix(1.3333333,0,0,-1.3333333,484.0092,333.09187)"
         clip-path="url(#clipPath41)"
         id="path101" />
      <path
         d="m 0,0 -4.52,-21.722 -11.89,-2.248 -0.164,5.102 -3.038,1.103 -13.079,-17.631 30.087,2.399 -10.879,-31.622 -13.08,-4.121 -20.054,3.606 1.097,16.672 19.14,-9.132 9.055,11.52 -13.64,-3.05 -6.254,2.91 -9.364,12.416 18.808,23.362 14.989,2.564 1.701,4.939 z m 0,1.69 c -0.138,0 -0.276,-0.018 -0.413,-0.054 l -11.085,-2.933 c -0.532,-0.141 -0.96,-0.543 -1.143,-1.074 l -1.377,-3.998 -14.029,-2.4 c -0.393,-0.067 -0.748,-0.277 -1.002,-0.592 l -18.808,-23.362 c -0.49,-0.608 -0.503,-1.483 -0.032,-2.108 l 9.364,-12.416 c 0.165,-0.218 0.379,-0.392 0.624,-0.506 l 6.253,-2.909 c 0.216,-0.1 0.449,-0.152 0.683,-0.152 0.118,0 0.236,0.013 0.352,0.039 l 9.068,2.028 -5.31,-6.756 -17.968,8.573 c -0.221,0.105 -0.459,0.158 -0.697,0.158 -0.291,0 -0.581,-0.079 -0.839,-0.235 -0.469,-0.284 -0.771,-0.786 -0.807,-1.341 l -1.098,-16.672 c -0.056,-0.862 0.531,-1.629 1.361,-1.778 l 20.055,-3.606 c 0.094,-0.017 0.19,-0.026 0.285,-0.026 0.164,0 0.328,0.025 0.485,0.075 l 13.08,4.121 c 0.5,0.158 0.897,0.549 1.071,1.054 l 10.88,31.621 c 0.185,0.539 0.092,1.138 -0.248,1.591 -0.314,0.418 -0.798,0.661 -1.309,0.661 -0.042,0 -0.085,-0.002 -0.128,-0.005 l -26.42,-2.107 10.125,13.649 0.84,-0.305 0.127,-3.951 c 0.016,-0.491 0.241,-0.952 0.615,-1.26 0.296,-0.244 0.661,-0.374 1.035,-0.374 0.1,0 0.2,0.009 0.299,0.028 l 11.891,2.248 c 0.657,0.124 1.175,0.641 1.314,1.31 l 4.52,21.722 C 1.733,0.22 1.555,0.815 1.142,1.22 0.831,1.525 0.42,1.69 0,1.69 m 0,-3.38 h 0.002 z"
         style="fill:#005478;fill-opacity:1;fill-rule:nonzero;stroke:none"
         transform="matrix(1.3333333,0,0,-1.3333333,484.0092,333.09187)"
         clip-path="url(#clipPath42)"
         id="path102" />
      <path
         d="M 0,0 C -0.048,0 -0.097,0.004 -0.145,0.013 L -20.199,3.619 C -20.61,3.693 -20.9,4.063 -20.872,4.48 l 1.097,16.671 c 0.018,0.272 0.17,0.517 0.404,0.654 0.235,0.138 0.521,0.15 0.768,0.033 l 18.547,-8.85 7.227,9.196 -11.394,-2.548 C -4.4,19.597 -4.584,19.617 -4.748,19.693 l -6.254,2.909 c -0.121,0.057 -0.227,0.142 -0.308,0.25 l -9.364,12.416 c -0.227,0.3 -0.22,0.716 0.015,1.008 l 18.808,23.362 c 0.126,0.156 0.304,0.26 0.501,0.294 l 14.51,2.482 1.543,4.48 c 0.089,0.259 0.301,0.456 0.566,0.526 l 11.084,2.933 c 0.275,0.072 0.568,-0.003 0.774,-0.198 0.206,-0.196 0.297,-0.484 0.239,-0.762 l -4.52,-21.722 c -0.067,-0.325 -0.324,-0.577 -0.65,-0.639 L 10.305,44.784 C 10.071,44.739 9.826,44.8 9.64,44.95 9.453,45.1 9.341,45.324 9.333,45.563 L 9.187,50.111 7.246,50.816 -4.394,35.124 23.894,37.38 c 0.278,0.021 0.543,-0.097 0.713,-0.315 0.17,-0.219 0.217,-0.508 0.128,-0.769 L 13.855,4.674 C 13.77,4.429 13.574,4.237 13.326,4.159 L 0.246,0.038 C 0.167,0.013 0.083,0 0,0 m -19.187,5.103 19.133,-3.44 12.493,3.936 10.337,30.047 -28.839,-2.3 c -0.316,-0.026 -0.626,0.138 -0.782,0.42 -0.156,0.281 -0.133,0.628 0.058,0.886 l 13.08,17.631 c 0.216,0.292 0.597,0.406 0.938,0.283 l 3.037,-1.103 c 0.316,-0.115 0.529,-0.41 0.54,-0.745 l 0.134,-4.145 10.41,1.969 4.138,19.886 -9.379,-2.482 -1.559,-4.525 C 14.455,61.137 14.211,60.93 13.915,60.88 L -0.768,58.368 -18.98,35.746 l 8.856,-11.743 5.815,-2.706 13.368,2.989 c 0.339,0.076 0.688,-0.07 0.873,-0.363 0.185,-0.293 0.165,-0.671 -0.049,-0.944 L 0.828,11.459 C 0.591,11.157 0.177,11.061 -0.17,11.226 l -18.048,8.611 z"
         style="fill:#009fe3;fill-opacity:1;fill-rule:nonzero;stroke:none"
         transform="matrix(1.3333333,0,0,-1.3333333,448.59187,425.83827)"
         clip-path="url(#clipPath43)"
         id="path103" />
      <path
         d="m 0,0 c -0.115,0 -0.231,0.018 -0.343,0.054 -0.308,0.1 -0.559,0.329 -0.692,0.631 L -6.82,13.851 c -0.113,0.256 -0.131,0.545 -0.051,0.814 L 2.517,46.31 3.363,49.212 2.096,49.43 -3.626,44.183 c -0.214,-0.196 -0.484,-0.297 -0.758,-0.297 -0.193,0 -0.388,0.051 -0.563,0.154 -0.425,0.249 -0.645,0.749 -0.548,1.239 l 3.018,15.22 c 0.094,0.47 0.459,0.833 0.92,0.914 l 32.733,5.759 c 0.064,0.011 0.128,0.017 0.192,0.017 0.232,0 0.46,-0.073 0.652,-0.211 l 7.695,-5.537 c 0.192,-0.139 0.338,-0.335 0.417,-0.563 l 2.425,-7.012 c 0.119,-0.343 0.074,-0.721 -0.12,-1.025 L 33.748,39.26 C 33.621,39.061 33.437,38.907 33.222,38.819 L 24.807,35.353 C 24.762,35.335 24.716,35.319 24.67,35.307 L 14.017,32.469 4.447,2.838 C 4.361,2.571 4.183,2.345 3.947,2.202 L 0.577,0.162 C 0.401,0.055 0.201,0 0,0 m 15.828,45.541 11.118,6.329 -9.002,0.752 z"
         style="fill:#d1eaf0;fill-opacity:1;fill-rule:nonzero;stroke:none"
         transform="matrix(1.3333333,0,0,-1.3333333,490.8672,423.80467)"
         clip-path="url(#clipPath44)"
         id="path104" />
      <path
         d="m 0,0 7.694,-5.537 2.426,-7.013 -8.689,-13.58 -8.415,-3.466 -11.25,-2.997 -9.764,-30.232 -3.37,-2.04 -5.786,13.165 9.389,31.645 1.215,4.168 -3.073,0.528 -6.128,-5.62 3.018,15.22 z m -17.449,-22.902 16.849,9.591 -13.641,1.14 z M 0,2.324 c -0.128,0 -0.256,-0.011 -0.384,-0.034 l -32.733,-5.759 c -0.923,-0.163 -1.653,-0.888 -1.839,-1.828 l -3.019,-15.22 c -0.195,-0.981 0.247,-1.98 1.096,-2.478 0.351,-0.207 0.741,-0.308 1.127,-0.308 0.546,0 1.088,0.202 1.515,0.593 l 4.544,4.167 -0.247,-0.847 -9.385,-31.634 c -0.159,-0.538 -0.123,-1.117 0.102,-1.629 l 5.786,-13.166 c 0.265,-0.603 0.768,-1.062 1.383,-1.261 0.224,-0.073 0.456,-0.109 0.686,-0.109 0.402,0 0.802,0.109 1.155,0.324 l 3.37,2.04 c 0.472,0.286 0.827,0.737 0.999,1.271 l 9.376,29.031 10.055,2.678 c 0.094,0.025 0.186,0.056 0.276,0.093 l 8.415,3.466 c 0.43,0.177 0.797,0.485 1.051,0.882 l 8.689,13.581 c 0.389,0.607 0.478,1.365 0.241,2.049 L 9.833,-4.761 C 9.676,-4.306 9.384,-3.913 8.999,-3.636 L 1.305,1.901 C 0.92,2.178 0.464,2.324 0,2.324 m -13.631,-20.394 1.025,3.431 4.362,-0.365 z"
         style="fill:#004563;fill-opacity:1;fill-rule:nonzero;stroke:none"
         transform="matrix(1.3333333,0,0,-1.3333333,532.69107,335.76827)"
         clip-path="url(#clipPath45)"
         id="path105" />
      <path
         d="m 0,0 7.694,-5.537 2.426,-7.013 -8.689,-13.58 -8.415,-3.466 -11.25,-2.997 -9.764,-30.232 -3.37,-2.04 -5.786,13.165 9.389,31.645 1.215,4.168 -3.073,0.527 -6.128,-5.619 3.018,15.22 z m -17.449,-22.902 16.849,9.591 -13.641,1.14 z M 0,1.69 c -0.093,0 -0.187,-0.008 -0.28,-0.024 l -32.732,-5.76 c -0.671,-0.118 -1.203,-0.646 -1.338,-1.329 l -3.018,-15.22 c -0.142,-0.714 0.179,-1.44 0.796,-1.802 0.256,-0.151 0.539,-0.224 0.82,-0.224 0.398,0 0.792,0.146 1.102,0.431 l 5.537,5.077 0.447,-0.076 -0.681,-2.335 -9.386,-31.637 c -0.116,-0.391 -0.09,-0.812 0.074,-1.184 l 5.786,-13.166 c 0.193,-0.438 0.559,-0.772 1.006,-0.917 0.163,-0.053 0.332,-0.079 0.499,-0.079 0.293,0 0.583,0.079 0.84,0.235 l 3.37,2.041 c 0.343,0.207 0.601,0.536 0.726,0.924 l 9.482,29.358 10.382,2.766 c 0.068,0.018 0.134,0.04 0.2,0.067 l 8.415,3.466 c 0.312,0.129 0.579,0.353 0.764,0.641 l 8.69,13.581 c 0.282,0.442 0.347,0.993 0.175,1.491 L 9.25,-4.972 c -0.115,0.33 -0.327,0.616 -0.607,0.818 L 0.949,1.383 C 0.669,1.584 0.337,1.69 0,1.69 m -14.673,-21.078 1.621,5.422 6.893,-0.576 z"
         style="fill:#005478;fill-opacity:1;fill-rule:nonzero;stroke:none"
         transform="matrix(1.3333333,0,0,-1.3333333,532.69107,335.76827)"
         clip-path="url(#clipPath46)"
         id="path106" />
      <path
         d="M 0,0 C -0.083,0 -0.166,0.013 -0.247,0.038 -0.472,0.109 -0.656,0.274 -0.751,0.49 l -5.786,13.166 c -0.078,0.177 -0.09,0.377 -0.035,0.563 l 9.388,31.645 0.957,3.282 -1.77,0.304 -5.832,-5.348 c -0.262,-0.24 -0.648,-0.284 -0.957,-0.11 -0.309,0.173 -0.471,0.526 -0.402,0.874 l 3.019,15.22 c 0.066,0.332 0.329,0.589 0.662,0.648 l 32.733,5.759 c 0.218,0.038 0.441,-0.013 0.621,-0.142 l 7.694,-5.537 c 0.137,-0.099 0.241,-0.237 0.296,-0.397 l 2.426,-7.013 c 0.082,-0.237 0.051,-0.499 -0.084,-0.71 l -8.69,-13.581 c -0.09,-0.142 -0.222,-0.252 -0.378,-0.316 L 24.696,35.331 C 24.663,35.318 24.629,35.306 24.595,35.297 L 13.777,32.415 4.15,2.609 C 4.089,2.421 3.963,2.261 3.794,2.159 L 0.425,0.118 C 0.295,0.04 0.148,0 0,0 m -4.914,14.04 5.289,-12.034 2.308,1.397 9.67,29.942 c 0.086,0.265 0.3,0.468 0.57,0.54 l 11.198,2.983 8.126,3.347 8.336,13.028 -2.211,6.392 -7.202,5.183 -31.84,-5.602 -2.422,-12.213 4.283,3.927 c 0.187,0.172 0.441,0.248 0.693,0.204 l 3.072,-0.527 c 0.231,-0.04 0.433,-0.176 0.557,-0.374 0.124,-0.198 0.157,-0.44 0.092,-0.664 L 4.389,45.401 Z m 37.713,25.515 h 0.004 z m -18.88,2.409 c -0.181,0 -0.362,0.06 -0.51,0.178 -0.263,0.208 -0.372,0.556 -0.275,0.877 l 3.207,10.73 c 0.111,0.372 0.465,0.61 0.854,0.582 l 13.641,-1.14 c 0.358,-0.03 0.655,-0.289 0.733,-0.64 0.077,-0.351 -0.083,-0.712 -0.395,-0.89 l -16.849,-9.59 c -0.127,-0.072 -0.267,-0.107 -0.406,-0.107 m 3.803,10.677 -2.432,-8.133 12.772,7.269 z"
         style="fill:#009fe3;fill-opacity:1;fill-rule:nonzero;stroke:none"
         transform="matrix(1.3333333,0,0,-1.3333333,490.86733,423.34893)"
         clip-path="url(#clipPath47)"
         id="path107" />
      <path
         d="M 0,0 C -0.158,0 -0.317,0.034 -0.466,0.102 L -5.269,2.316 C -5.81,2.566 -6.072,3.199 -5.87,3.771 L 8.015,43.109 c 0.05,0.14 0.125,0.269 0.222,0.38 l 1.746,2 -4.361,-0.534 c -0.044,-0.006 -0.09,-0.009 -0.134,-0.009 -0.355,0 -0.692,0.17 -0.908,0.465 -0.243,0.331 -0.295,0.77 -0.136,1.152 l 7.317,17.619 c 0.135,0.326 0.408,0.57 0.74,0.665 l 9.879,2.809 c 0.099,0.029 0.201,0.043 0.303,0.043 0.118,0 0.234,-0.019 0.347,-0.056 l 13.097,-4.305 c 0.094,-0.031 0.184,-0.075 0.268,-0.13 l 7.545,-4.981 6.249,-1.276 c 0.399,-0.081 0.725,-0.375 0.854,-0.771 0.129,-0.395 0.042,-0.831 -0.229,-1.142 L 34.167,35.932 C 33.995,35.735 33.764,35.604 33.51,35.56 L 23.776,33.868 36.72,19.317 c 0.208,-0.234 0.314,-0.546 0.293,-0.862 L 35.915,2.158 C 35.883,1.685 35.574,1.279 35.133,1.133 35.018,1.094 34.9,1.076 34.784,1.076 c -0.331,0 -0.652,0.148 -0.872,0.417 L 15.792,23.725 9.509,5.78 C 9.419,5.521 9.242,5.304 9.01,5.167 L 0.569,0.157 C 0.394,0.053 0.197,0 0,0 m 20.39,43.061 11.999,8.957 -9.073,0.907 z"
         style="fill:#d1eaf0;fill-opacity:1;fill-rule:nonzero;stroke:none"
         transform="matrix(1.3333333,0,0,-1.3333333,365.594,424.1696)"
         clip-path="url(#clipPath48)"
         id="path108" />
      <path
         d="m 0,0 13.096,-4.305 7.727,-5.101 6.461,-1.319 -16.647,-19.107 -11.782,-2.047 14.343,-16.123 -1.098,-16.297 -19.391,23.79 -6.951,-19.856 -8.442,-5.01 -4.802,2.214 13.885,39.338 3.749,4.294 -7.344,-0.9 7.318,17.619 z m -4.364,-26.46 17.147,12.801 -12.966,1.296 z M 0,2.324 c -0.204,0 -0.408,-0.029 -0.607,-0.085 l -9.879,-2.81 c -0.665,-0.189 -1.21,-0.679 -1.48,-1.329 l -7.318,-17.619 c -0.317,-0.763 -0.212,-1.641 0.274,-2.305 0.431,-0.588 1.106,-0.928 1.814,-0.928 0.09,0 0.18,0.005 0.27,0.016 l 1.419,0.174 c -0.093,-0.147 -0.17,-0.305 -0.228,-0.471 L -29.62,-62.372 c -0.404,-1.142 0.12,-2.41 1.202,-2.908 l 4.803,-2.214 c 0.297,-0.137 0.615,-0.205 0.931,-0.205 0.395,0 0.788,0.105 1.138,0.313 l 8.442,5.01 c 0.463,0.275 0.817,0.71 0.998,1.226 l 5.614,16.035 16.85,-20.673 c 0.439,-0.538 1.081,-0.835 1.742,-0.835 0.234,0 0.47,0.037 0.7,0.113 0.881,0.293 1.5,1.105 1.564,2.051 l 1.098,16.297 c 0.042,0.633 -0.17,1.256 -0.587,1.725 l -11.546,12.978 7.687,1.336 c 0.508,0.088 0.971,0.351 1.314,0.744 l 16.647,19.107 c 0.542,0.622 0.717,1.493 0.459,2.284 -0.259,0.79 -0.911,1.379 -1.709,1.542 l -6.037,1.232 -7.364,4.862 c -0.167,0.11 -0.347,0.197 -0.536,0.259 L 0.694,2.212 C 0.468,2.286 0.234,2.324 0,2.324 m -0.222,-22.817 1.67,5.632 5.18,-0.517 z"
         style="fill:#004563;fill-opacity:1;fill-rule:nonzero;stroke:none"
         transform="matrix(1.3333333,0,0,-1.3333333,395.83853,335.45347)"
         clip-path="url(#clipPath49)"
         id="path109" />
      <path
         d="m 0,0 13.096,-4.305 7.727,-5.101 6.461,-1.319 -16.647,-19.107 -11.782,-2.047 14.343,-16.123 -1.098,-16.297 -19.391,23.79 -6.951,-19.856 -8.442,-5.01 -4.802,2.214 13.885,39.338 3.749,4.294 -7.344,-0.9 7.318,17.619 z m -4.364,-26.46 17.147,12.801 -12.966,1.296 z M 0,1.69 c -0.148,0 -0.297,-0.021 -0.442,-0.062 l -9.878,-2.81 c -0.484,-0.137 -0.88,-0.493 -1.077,-0.966 l -7.317,-17.619 c -0.231,-0.555 -0.155,-1.194 0.198,-1.676 0.314,-0.428 0.805,-0.676 1.32,-0.676 0.065,0 0.131,0.004 0.196,0.012 l 3.005,0.368 -0.836,-0.957 c -0.141,-0.161 -0.25,-0.349 -0.322,-0.552 l -13.885,-39.339 c -0.294,-0.831 0.087,-1.753 0.874,-2.115 l 4.803,-2.214 c 0.216,-0.1 0.447,-0.149 0.677,-0.149 0.287,0 0.573,0.076 0.828,0.228 l 8.442,5.009 c 0.337,0.201 0.594,0.517 0.725,0.892 l 5.979,17.077 17.543,-21.523 c 0.319,-0.391 0.787,-0.607 1.267,-0.607 0.17,0 0.342,0.027 0.509,0.082 0.641,0.213 1.091,0.803 1.138,1.492 l 1.097,16.297 c 0.031,0.46 -0.123,0.913 -0.426,1.254 l -12.309,13.836 8.804,1.53 c 0.369,0.064 0.706,0.255 0.955,0.541 l 16.647,19.107 c 0.394,0.452 0.521,1.086 0.334,1.661 -0.188,0.575 -0.662,1.003 -1.243,1.121 l -6.152,1.256 -7.463,4.927 c -0.121,0.08 -0.253,0.144 -0.39,0.189 L 0.505,1.609 C 0.341,1.663 0.17,1.69 0,1.69 m -1.352,-23.81 2.355,7.94 7.304,-0.729 z"
         style="fill:#005478;fill-opacity:1;fill-rule:nonzero;stroke:none"
         transform="matrix(1.3333333,0,0,-1.3333333,395.83853,335.45347)"
         clip-path="url(#clipPath50)"
         id="path110" />
      <path
         d="m 0,0 c -0.117,0 -0.234,0.025 -0.343,0.075 l -4.803,2.214 c -0.385,0.177 -0.571,0.618 -0.43,1.018 L 8.309,42.645 c 0.035,0.098 0.088,0.189 0.156,0.267 l 2.34,2.679 -5.217,-0.639 c -0.291,-0.034 -0.577,0.086 -0.753,0.319 -0.176,0.232 -0.216,0.54 -0.104,0.81 L 12.048,63.7 c 0.096,0.231 0.292,0.406 0.533,0.474 l 9.878,2.81 c 0.158,0.045 0.325,0.041 0.481,-0.01 l 13.096,-4.305 c 0.069,-0.023 0.135,-0.054 0.196,-0.095 l 7.594,-5.013 6.305,-1.288 c 0.286,-0.058 0.519,-0.264 0.613,-0.54 0.093,-0.276 0.033,-0.582 -0.159,-0.802 L 33.938,35.825 c -0.123,-0.142 -0.292,-0.237 -0.477,-0.27 L 23.13,33.76 36.494,18.738 c 0.146,-0.164 0.22,-0.381 0.205,-0.6 L 35.602,1.841 C 35.579,1.505 35.353,1.217 35.032,1.115 34.713,1.013 34.361,1.117 34.148,1.378 L 15.683,24.032 9.215,5.559 C 9.152,5.377 9.026,5.223 8.86,5.125 L 0.418,0.115 C 0.29,0.039 0.145,0 0,0 m -3.781,3.466 3.733,-1.721 7.814,4.637 6.853,19.575 c 0.098,0.28 0.34,0.485 0.632,0.536 0.293,0.053 0.59,-0.059 0.777,-0.289 L 34.105,4.026 35.04,17.905 20.926,33.771 c -0.198,0.222 -0.26,0.534 -0.162,0.815 0.098,0.281 0.341,0.487 0.634,0.538 l 11.495,1.997 15.532,17.827 -5.083,1.037 c -0.102,0.021 -0.2,0.062 -0.287,0.12 l -7.635,5.04 -12.754,4.193 -9.255,-2.633 -6.626,-15.954 5.947,0.729 c 0.337,0.04 0.665,-0.13 0.824,-0.43 0.159,-0.3 0.117,-0.668 -0.107,-0.923 L 9.803,41.952 Z M 18.32,38.915 c -0.164,0 -0.328,0.049 -0.469,0.147 -0.29,0.202 -0.418,0.567 -0.317,0.906 l 4.18,14.097 c 0.112,0.377 0.479,0.618 0.868,0.583 l 12.966,-1.296 c 0.336,-0.033 0.618,-0.27 0.708,-0.596 0.091,-0.326 -0.028,-0.674 -0.299,-0.877 L 18.81,39.078 C 18.665,38.969 18.492,38.915 18.32,38.915 M 23.094,52.948 19.808,41.869 33.284,51.93 Z"
         style="fill:#009fe3;fill-opacity:1;fill-rule:nonzero;stroke:none"
         transform="matrix(1.3333333,0,0,-1.3333333,365.59387,423.71373)"
         clip-path="url(#clipPath51)"
         id="path111" />
      <path
         d="m 0,0 c 0,1.5 0.182,2.838 0.182,4.277 0,0.831 -0.507,1.642 -3.06,1.642 v 0.487 c 2.553,0 3.06,0.81 3.06,1.642 0,1.297 -0.182,2.898 -0.182,4.277 0,2.007 1.236,2.554 3.73,2.554 H 4.703 V 14.433 H 3.487 c -2.372,0 -2.879,-0.71 -2.879,-2.189 C 0.608,11.007 0.75,9.588 0.75,8.27 0.75,7.156 0.405,6.446 -0.932,6.203 V 6.122 C 0.405,5.878 0.75,5.169 0.75,4.054 c 0,-1.5 -0.142,-2.615 -0.142,-3.973 0,-1.48 0.507,-2.189 2.879,-2.189 H 4.703 V -2.554 H 3.73 C 1.236,-2.554 0,-2.007 0,0"
         style="fill:#c9e9fb;fill-opacity:1;fill-rule:nonzero;stroke:none"
         transform="matrix(1.3333333,0,0,-1.3333333,208.80693,470.92533)"
         clip-path="url(#clipPath52)"
         id="path112" />
      <path
         d="m 0,0 c 0,1.5 0.182,2.838 0.182,4.277 0,0.831 -0.506,1.642 -3.06,1.642 v 0.487 c 2.554,0 3.06,0.81 3.06,1.642 0,1.297 -0.182,2.898 -0.182,4.277 0,2.007 1.237,2.554 3.73,2.554 H 4.703 V 14.433 H 3.487 c -2.372,0 -2.879,-0.71 -2.879,-2.189 C 0.608,11.007 0.75,9.588 0.75,8.27 0.75,7.156 0.405,6.446 -0.932,6.203 V 6.122 C 0.405,5.878 0.75,5.169 0.75,4.054 c 0,-1.5 -0.142,-2.615 -0.142,-3.973 0,-1.48 0.507,-2.189 2.879,-2.189 H 4.703 V -2.554 H 3.73 C 1.237,-2.554 0,-2.007 0,0"
         style="fill:#c9e9fb;fill-opacity:1;fill-rule:nonzero;stroke:none"
         transform="matrix(1.3333333,0,0,-1.3333333,226.64707,470.92533)"
         clip-path="url(#clipPath53)"
         id="path113" />
      <path
         d="m 0,0 h 4.188 c 2.92,0 4.99,-1.005 4.99,-3.999 0,-2.894 -2.102,-4.21 -4.99,-4.21 H 2.036 v -5.066 H 0 Z m 3.993,-6.573 c 2.137,0 3.164,0.821 3.164,2.574 0,1.769 -1.059,2.363 -3.164,2.363 H 2.036 v -4.937 z"
         style="fill:#c9e9fb;fill-opacity:1;fill-rule:nonzero;stroke:none"
         transform="matrix(1.3333333,0,0,-1.3333333,247.50253,454.48867)"
         clip-path="url(#clipPath54)"
         id="path114" />
      <path
         d="M 0,0 H 8.328 V -1.716 H 2.036 V -5.828 H 7.373 V -7.544 H 2.036 v -5.731 H 0 Z"
         style="fill:#c9e9fb;fill-opacity:1;fill-rule:nonzero;stroke:none"
         transform="matrix(1.3333333,0,0,-1.3333333,272.55267,454.48867)"
         clip-path="url(#clipPath55)"
         id="path115" />
      <path
         d="M 0,0 H 2.37 L 6.755,-13.275 H 4.582 l -2.139,7.23 c -0.432,1.438 -0.867,2.92 -1.249,4.423 H 1.113 c -0.4,-1.503 -0.81,-2.985 -1.243,-4.423 l -2.172,-7.23 h -2.083 z m -1.923,-7.848 h 6.158 v -1.624 h -6.158 z"
         style="fill:#c9e9fb;fill-opacity:1;fill-rule:nonzero;stroke:none"
         transform="matrix(1.3333333,0,0,-1.3333333,299.20587,454.48867)"
         clip-path="url(#clipPath56)"
         id="path116" />
      <path
         d="M 0,0 H 8.328 V -1.716 H 2.036 V -5.828 H 7.373 V -7.544 H 2.036 v -5.731 H 0 Z"
         style="fill:#c9e9fb;fill-opacity:1;fill-rule:nonzero;stroke:none"
         transform="matrix(1.3333333,0,0,-1.3333333,320.68427,454.48867)"
         clip-path="url(#clipPath57)"
         id="path117" />
      <path
         d="M 0,0 H 8.328 V -1.716 H 2.036 V -5.828 H 7.373 V -7.544 H 2.036 v -5.731 H 0 Z"
         style="fill:#c9e9fb;fill-opacity:1;fill-rule:nonzero;stroke:none"
         transform="matrix(1.3333333,0,0,-1.3333333,344.80133,454.48867)"
         clip-path="url(#clipPath58)"
         id="path118" />
      <path
         d="M 0,0 H 8.366 V -1.716 H 2.036 V -5.481 H 7.39 V -7.197 H 2.036 v -4.362 h 6.533 v -1.716 H 0 Z"
         style="fill:#c9e9fb;fill-opacity:1;fill-rule:nonzero;stroke:none"
         transform="matrix(1.3333333,0,0,-1.3333333,368.72653,454.48867)"
         clip-path="url(#clipPath59)"
         id="path119" />
      <path
         d="m 0,0 h 2.175 l 3.875,-7.89 1.239,-2.795 h 0.048 c -0.08,1.337 -0.272,2.928 -0.272,4.368 V 0 H 9.004 V -13.275 H 6.829 L 2.955,-5.381 1.716,-2.59 H 1.667 C 1.747,-3.975 1.94,-5.485 1.94,-6.909 v -6.366 H 0 Z"
         style="fill:#c9e9fb;fill-opacity:1;fill-rule:nonzero;stroke:none"
         transform="matrix(1.3333333,0,0,-1.3333333,392.6708,454.48867)"
         clip-path="url(#clipPath60)"
         id="path120" />
      <path
         d="M 0,0 H 2.053 V -5.433 H 7.067 V 0 H 9.119 V -13.275 H 7.067 v 6.054 H 2.053 v -6.054 H 0 Z"
         style="fill:#c9e9fb;fill-opacity:1;fill-rule:nonzero;stroke:none"
         transform="matrix(1.3333333,0,0,-1.3333333,417.99853,454.48867)"
         clip-path="url(#clipPath61)"
         id="path121" />
      <path
         d="m 0,0 c 0,4.328 2.123,6.82 5.161,6.82 3.038,0 5.162,-2.492 5.162,-6.82 0,-4.4 -2.124,-6.942 -5.162,-6.942 C 2.123,-6.942 0,-4.4 0,0 M 8.223,0 C 8.223,3.189 7.005,5.04 5.161,5.04 3.318,5.04 2.1,3.189 2.1,0 c 0,-3.262 1.218,-5.162 3.061,-5.162 1.844,0 3.062,1.9 3.062,5.162"
         style="fill:#c9e9fb;fill-opacity:1;fill-rule:nonzero;stroke:none"
         transform="matrix(1.3333333,0,0,-1.3333333,442.72133,463.25747)"
         clip-path="url(#clipPath62)"
         id="path122" />
      <path
         d="M 0,0 H 8.328 V -1.716 H 2.036 V -5.828 H 7.373 V -7.544 H 2.036 v -5.731 H 0 Z"
         style="fill:#c9e9fb;fill-opacity:1;fill-rule:nonzero;stroke:none"
         transform="matrix(1.3333333,0,0,-1.3333333,469.63467,454.48867)"
         clip-path="url(#clipPath63)"
         id="path123" />
      <path
         d="M 0,0 H 8.366 V -1.716 H 2.036 V -5.481 H 7.391 V -7.197 H 2.036 v -4.362 h 6.533 v -1.716 H 0 Z"
         style="fill:#c9e9fb;fill-opacity:1;fill-rule:nonzero;stroke:none"
         transform="matrix(1.3333333,0,0,-1.3333333,493.55893,454.48867)"
         clip-path="url(#clipPath64)"
         id="path124" />
      <path
         d="M 0,0 H 2.175 L 6.05,-7.89 7.289,-10.685 H 7.337 C 7.258,-9.348 7.065,-7.757 7.065,-6.317 V 0 h 1.94 V -13.275 H 6.829 L 2.955,-5.381 1.716,-2.59 H 1.667 C 1.747,-3.975 1.94,-5.485 1.94,-6.909 v -6.366 H 0 Z"
         style="fill:#c9e9fb;fill-opacity:1;fill-rule:nonzero;stroke:none"
         transform="matrix(1.3333333,0,0,-1.3333333,517.50333,454.48867)"
         clip-path="url(#clipPath65)"
         id="path125" />
      <path
         d="m 0,0 h 1.217 c 2.371,0 2.918,0.709 2.918,2.189 0,1.359 -0.162,2.473 -0.162,3.973 0,1.116 0.304,1.825 1.663,2.068 v 0.081 c -1.359,0.243 -1.663,0.953 -1.663,2.068 0,1.318 0.162,2.737 0.162,3.973 0,1.48 -0.547,2.189 -2.918,2.189 H 0 v 0.446 h 0.973 c 2.494,0 3.709,-0.547 3.709,-2.554 0,-1.378 -0.161,-2.98 -0.161,-4.277 0,-0.831 0.506,-1.642 3.04,-1.642 V 8.027 c -2.534,0 -3.04,-0.81 -3.04,-1.641 0,-1.44 0.161,-2.778 0.161,-4.278 0,-2.006 -1.215,-2.554 -3.709,-2.554 H 0 Z"
         style="fill:#c9e9fb;fill-opacity:1;fill-rule:nonzero;stroke:none"
         transform="matrix(1.3333333,0,0,-1.3333333,542.28573,473.73653)"
         clip-path="url(#clipPath66)"
         id="path126" />
      <path
         d="m 0,0 h 1.217 c 2.371,0 2.918,0.709 2.918,2.189 0,1.359 -0.162,2.473 -0.162,3.973 0,1.116 0.304,1.825 1.663,2.068 v 0.081 c -1.359,0.243 -1.663,0.953 -1.663,2.068 0,1.318 0.162,2.737 0.162,3.973 0,1.48 -0.547,2.189 -2.918,2.189 H 0 v 0.446 h 0.973 c 2.493,0 3.71,-0.547 3.71,-2.554 0,-1.378 -0.162,-2.98 -0.162,-4.277 0,-0.831 0.506,-1.642 3.041,-1.642 V 8.027 c -2.535,0 -3.041,-0.81 -3.041,-1.641 0,-1.44 0.162,-2.778 0.162,-4.278 0,-2.006 -1.217,-2.554 -3.71,-2.554 H 0 Z"
         style="fill:#c9e9fb;fill-opacity:1;fill-rule:nonzero;stroke:none"
         transform="matrix(1.3333333,0,0,-1.3333333,560.09893,473.73653)"
         clip-path="url(#clipPath67)"
         id="path127" />
    </g>
  </g>
</svg>
